<?xml version="1.0" encoding="UTF-8" standalone="no"?>
<!-- Created with Inkscape (http://www.inkscape.org/) -->

<svg
   version="1.1"
   id="svg1"
   width="457.33334"
   height="129.33333"
   viewBox="0 0 457.33334 129.33333"
   xmlns="http://www.w3.org/2000/svg"
   xmlns:svg="http://www.w3.org/2000/svg">
  <defs
     id="defs1">
    <clipPath
       clipPathUnits="userSpaceOnUse"
       id="clipPath1">
      <path
         d="M 0,0 H 612 V 792 H 0 Z"
         transform="matrix(1,0,0,-1,-148.712,657.23502)"
         id="path1" />
    </clipPath>
    <clipPath
       clipPathUnits="userSpaceOnUse"
       id="clipPath2">
      <path
         d="M 0,0 H 612 V 792 H 0 Z"
         transform="matrix(1,0,0,-1,-133.768,645.28002)"
         id="path2" />
    </clipPath>
    <clipPath
       clipPathUnits="userSpaceOnUse"
       id="clipPath3">
      <path
         d="M 0,0 H 612 V 792 H 0 Z"
         transform="matrix(1,0,0,-1,-204.08601,615.57802)"
         id="path3" />
    </clipPath>
    <clipPath
       clipPathUnits="userSpaceOnUse"
       id="clipPath4">
      <path
         d="M 0,0 H 612 V 792 H 0 Z"
         transform="matrix(1,0,0,-1,-210.17501,615.57802)"
         id="path4" />
    </clipPath>
    <clipPath
       clipPathUnits="userSpaceOnUse"
       id="clipPath5">
      <path
         d="M 0,0 H 612 V 792 H 0 Z"
         transform="matrix(1,0,0,-1,-214.04901,615.57802)"
         id="path5" />
    </clipPath>
    <clipPath
       clipPathUnits="userSpaceOnUse"
       id="clipPath6">
      <path
         d="M 0,0 H 612 V 792 H 0 Z"
         transform="matrix(1,0,0,-1,-225.29901,615.57802)"
         id="path6" />
    </clipPath>
    <clipPath
       clipPathUnits="userSpaceOnUse"
       id="clipPath7">
      <path
         d="M 0,0 H 612 V 792 H 0 Z"
         transform="matrix(1,0,0,-1,-235.26101,615.57802)"
         id="path7" />
    </clipPath>
    <clipPath
       clipPathUnits="userSpaceOnUse"
       id="clipPath8">
      <path
         d="M 0,0 H 612 V 792 H 0 Z"
         transform="matrix(1,0,0,-1,-246.02601,615.57802)"
         id="path8" />
    </clipPath>
    <clipPath
       clipPathUnits="userSpaceOnUse"
       id="clipPath9">
      <path
         d="M 0,0 H 612 V 792 H 0 Z"
         transform="matrix(1,0,0,-1,-256.542,615.57802)"
         id="path9" />
    </clipPath>
    <clipPath
       clipPathUnits="userSpaceOnUse"
       id="clipPath10">
      <path
         d="M 0,0 H 612 V 792 H 0 Z"
         transform="matrix(1,0,0,-1,-262.04301,615.57802)"
         id="path10" />
    </clipPath>
    <clipPath
       clipPathUnits="userSpaceOnUse"
       id="clipPath11">
      <path
         d="M 0,0 H 612 V 792 H 0 Z"
         transform="matrix(1,0,0,-1,-268.67713,615.57802)"
         id="path11" />
    </clipPath>
    <clipPath
       clipPathUnits="userSpaceOnUse"
       id="clipPath12">
      <path
         d="M 0,0 H 612 V 792 H 0 Z"
         transform="matrix(1,0,0,-1,-283.80801,628.03102)"
         id="path12" />
    </clipPath>
    <clipPath
       clipPathUnits="userSpaceOnUse"
       id="clipPath13">
      <path
         d="M 0,0 H 612 V 792 H 0 Z"
         transform="matrix(1,0,0,-1,-280.584,625.04202)"
         id="path13" />
    </clipPath>
    <clipPath
       clipPathUnits="userSpaceOnUse"
       id="clipPath14">
      <path
         d="M 0,0 H 612 V 792 H 0 Z"
         transform="matrix(1,0,0,-1,-279.20001,603.94402)"
         id="path14" />
    </clipPath>
    <clipPath
       clipPathUnits="userSpaceOnUse"
       id="clipPath15">
      <path
         d="M 0,0 H 612 V 792 H 0 Z"
         transform="matrix(1,0,0,-1,-286.27001,603.94402)"
         id="path15" />
    </clipPath>
    <clipPath
       clipPathUnits="userSpaceOnUse"
       id="clipPath16">
      <path
         d="M 0,0 H 612 V 792 H 0 Z"
         transform="matrix(1,0,0,-1,-298.01801,615.57802)"
         id="path16" />
    </clipPath>
    <clipPath
       clipPathUnits="userSpaceOnUse"
       id="clipPath17">
      <path
         d="M 0,0 H 612 V 792 H 0 Z"
         transform="matrix(1,0,0,-1,-304.10601,615.57802)"
         id="path17" />
    </clipPath>
    <clipPath
       clipPathUnits="userSpaceOnUse"
       id="clipPath18">
      <path
         d="M 0,0 H 612 V 792 H 0 Z"
         transform="matrix(1,0,0,-1,-307.98001,615.57802)"
         id="path18" />
    </clipPath>
    <clipPath
       clipPathUnits="userSpaceOnUse"
       id="clipPath19">
      <path
         d="M 0,0 H 612 V 792 H 0 Z"
         transform="matrix(1,0,0,-1,-319.78301,615.57802)"
         id="path19" />
    </clipPath>
    <clipPath
       clipPathUnits="userSpaceOnUse"
       id="clipPath20">
      <path
         d="M 0,0 H 612 V 792 H 0 Z"
         transform="matrix(1,0,0,-1,-330.29901,615.57802)"
         id="path20" />
    </clipPath>
    <clipPath
       clipPathUnits="userSpaceOnUse"
       id="clipPath21">
      <path
         d="M 0,0 H 612 V 792 H 0 Z"
         transform="matrix(1,0,0,-1,-339.04701,615.57802)"
         id="path21" />
    </clipPath>
    <clipPath
       clipPathUnits="userSpaceOnUse"
       id="clipPath22">
      <path
         d="M 0,0 H 612 V 792 H 0 Z"
         transform="matrix(1,0,0,-1,-344.58101,615.57802)"
         id="path22" />
    </clipPath>
    <clipPath
       clipPathUnits="userSpaceOnUse"
       id="clipPath23">
      <path
         d="M 0,0 H 612 V 792 H 0 Z"
         transform="matrix(1,0,0,-1,-350.67001,615.57802)"
         id="path23" />
    </clipPath>
    <clipPath
       clipPathUnits="userSpaceOnUse"
       id="clipPath24">
      <path
         d="M 0,0 H 612 V 792 H 0 Z"
         transform="matrix(1,0,0,-1,-354.54401,615.57802)"
         id="path24" />
    </clipPath>
    <clipPath
       clipPathUnits="userSpaceOnUse"
       id="clipPath25">
      <path
         d="M 0,0 H 612 V 792 H 0 Z"
         transform="matrix(1,0,0,-1,-366.34701,615.57802)"
         id="path25" />
    </clipPath>
    <clipPath
       clipPathUnits="userSpaceOnUse"
       id="clipPath26">
      <path
         d="M 0,0 H 612 V 792 H 0 Z"
         transform="matrix(1,0,0,-1,-376.86301,615.57802)"
         id="path26" />
    </clipPath>
    <clipPath
       clipPathUnits="userSpaceOnUse"
       id="clipPath27">
      <path
         d="M 0,0 H 612 V 792 H 0 Z"
         transform="matrix(1,0,0,-1,-387.82401,615.57802)"
         id="path27" />
    </clipPath>
    <clipPath
       clipPathUnits="userSpaceOnUse"
       id="clipPath28">
      <path
         d="M 0,0 H 612 V 792 H 0 Z"
         transform="matrix(1,0,0,-1,-397.78701,615.57802)"
         id="path28" />
    </clipPath>
    <clipPath
       clipPathUnits="userSpaceOnUse"
       id="clipPath29">
      <path
         d="M 0,0 H 612 V 792 H 0 Z"
         transform="matrix(1,0,0,-1,-403.28701,615.57802)"
         id="path29" />
    </clipPath>
    <clipPath
       clipPathUnits="userSpaceOnUse"
       id="clipPath30">
      <path
         d="M 0,0 H 612 V 792 H 0 Z"
         transform="matrix(1,0,0,-1,-466.09601,615.57802)"
         id="path30" />
    </clipPath>
    <clipPath
       clipPathUnits="userSpaceOnUse"
       id="clipPath31">
      <path
         d="M 0,0 H 612 V 792 H 0 Z"
         transform="matrix(1,0,0,-1,-226.779,580.67001)"
         id="path31" />
    </clipPath>
    <clipPath
       clipPathUnits="userSpaceOnUse"
       id="clipPath32">
      <path
         d="M 0,0 H 612 V 792 H 0 Z"
         transform="matrix(1,0,0,-1,-243.672,593.12301)"
         id="path32" />
    </clipPath>
    <clipPath
       clipPathUnits="userSpaceOnUse"
       id="clipPath33">
      <path
         d="M 0,0 H 612 V 792 H 0 Z"
         transform="matrix(1,0,0,-1,-238.67801,590.13402)"
         id="path33" />
    </clipPath>
    <clipPath
       clipPathUnits="userSpaceOnUse"
       id="clipPath34">
      <path
         d="M 0,0 H 612 V 792 H 0 Z"
         transform="matrix(1,0,0,-1,-237.29501,569.03601)"
         id="path34" />
    </clipPath>
    <clipPath
       clipPathUnits="userSpaceOnUse"
       id="clipPath35">
      <path
         d="M 0,0 H 612 V 792 H 0 Z"
         transform="matrix(1,0,0,-1,-244.365,569.03601)"
         id="path35" />
    </clipPath>
    <clipPath
       clipPathUnits="userSpaceOnUse"
       id="clipPath36">
      <path
         d="M 0,0 H 612 V 792 H 0 Z"
         transform="matrix(1,0,0,-1,-257.30801,587.41002)"
         id="path36" />
    </clipPath>
    <clipPath
       clipPathUnits="userSpaceOnUse"
       id="clipPath37">
      <path
         d="M 0,0 H 612 V 792 H 0 Z"
         transform="matrix(1,0,0,-1,-263.11901,591.02502)"
         id="path37" />
    </clipPath>
    <clipPath
       clipPathUnits="userSpaceOnUse"
       id="clipPath38">
      <path
         d="M 0,0 H 612 V 792 H 0 Z"
         transform="matrix(1,0,0,-1,-272.34801,587.41002)"
         id="path38" />
    </clipPath>
    <clipPath
       clipPathUnits="userSpaceOnUse"
       id="clipPath39">
      <path
         d="M 0,0 H 612 V 792 H 0 Z"
         transform="matrix(1,0,0,-1,-276.98601,591.02502)"
         id="path39" />
    </clipPath>
    <clipPath
       clipPathUnits="userSpaceOnUse"
       id="clipPath40">
      <path
         d="M 0,0 H 612 V 792 H 0 Z"
         transform="matrix(1,0,0,-1,-283.21301,591.02502)"
         id="path40" />
    </clipPath>
    <clipPath
       clipPathUnits="userSpaceOnUse"
       id="clipPath41">
      <path
         d="M 0,0 H 612 V 792 H 0 Z"
         transform="translate(-257.30801,-583.16001)"
         id="path41" />
    </clipPath>
    <clipPath
       clipPathUnits="userSpaceOnUse"
       id="clipPath42">
      <path
         d="M 0,0 H 612 V 792 H 0 Z"
         transform="matrix(1,0,0,-1,-267.11501,573.83601)"
         id="path42" />
    </clipPath>
    <clipPath
       clipPathUnits="userSpaceOnUse"
       id="clipPath43">
      <path
         d="M 0,0 H 612 V 792 H 0 Z"
         transform="matrix(1,0,0,-1,-275.862,573.83601)"
         id="path43" />
    </clipPath>
    <clipPath
       clipPathUnits="userSpaceOnUse"
       id="clipPath44">
      <path
         d="M 0,0 H 612 V 792 H 0 Z"
         transform="matrix(1,0,0,-1,-291.846,580.67001)"
         id="path44" />
    </clipPath>
    <clipPath
       clipPathUnits="userSpaceOnUse"
       id="clipPath45">
      <path
         d="M 0,0 H 612 V 792 H 0 Z"
         transform="matrix(1,0,0,-1,-298.023,587.41002)"
         id="path45" />
    </clipPath>
    <clipPath
       clipPathUnits="userSpaceOnUse"
       id="clipPath46">
      <path
         d="M 0,0 H 612 V 792 H 0 Z"
         transform="matrix(1,0,0,-1,-304.02601,591.02502)"
         id="path46" />
    </clipPath>
    <clipPath
       clipPathUnits="userSpaceOnUse"
       id="clipPath47">
      <path
         d="M 0,0 H 612 V 792 H 0 Z"
         transform="matrix(1,0,0,-1,-308.42901,591.02502)"
         id="path47" />
    </clipPath>
    <clipPath
       clipPathUnits="userSpaceOnUse"
       id="clipPath48">
      <path
         d="M 0,0 H 612 V 792 H 0 Z"
         transform="matrix(1,0,0,-1,-314.65601,591.02502)"
         id="path48" />
    </clipPath>
    <clipPath
       clipPathUnits="userSpaceOnUse"
       id="clipPath49">
      <path
         d="M 0,0 H 612 V 792 H 0 Z"
         transform="matrix(1,0,0,-1,-323.88401,587.41002)"
         id="path49" />
    </clipPath>
    <clipPath
       clipPathUnits="userSpaceOnUse"
       id="clipPath50">
      <path
         d="M 0,0 H 612 V 792 H 0 Z"
         transform="matrix(1,0,0,-1,-328.52301,591.02502)"
         id="path50" />
    </clipPath>
    <clipPath
       clipPathUnits="userSpaceOnUse"
       id="clipPath51">
      <path
         d="M 0,0 H 612 V 792 H 0 Z"
         transform="matrix(1,0,0,-1,-334.75001,591.02502)"
         id="path51" />
    </clipPath>
    <clipPath
       clipPathUnits="userSpaceOnUse"
       id="clipPath52">
      <path
         d="M 0,0 H 612 V 792 H 0 Z"
         transform="translate(-298.023,-583.16001)"
         id="path52" />
    </clipPath>
    <clipPath
       clipPathUnits="userSpaceOnUse"
       id="clipPath53">
      <path
         d="M 0,0 H 612 V 792 H 0 Z"
         transform="matrix(1,0,0,-1,-300.58701,573.83601)"
         id="path53" />
    </clipPath>
    <clipPath
       clipPathUnits="userSpaceOnUse"
       id="clipPath54">
      <path
         d="M 0,0 H 612 V 792 H 0 Z"
         transform="matrix(1,0,0,-1,-304.46201,573.83601)"
         id="path54" />
    </clipPath>
    <clipPath
       clipPathUnits="userSpaceOnUse"
       id="clipPath55">
      <path
         d="M 0,0 H 612 V 792 H 0 Z"
         transform="matrix(1,0,0,-1,-312.17601,573.83601)"
         id="path55" />
    </clipPath>
    <clipPath
       clipPathUnits="userSpaceOnUse"
       id="clipPath56">
      <path
         d="M 0,0 H 612 V 792 H 0 Z"
         transform="matrix(1,0,0,-1,-322.13801,573.83601)"
         id="path56" />
    </clipPath>
    <clipPath
       clipPathUnits="userSpaceOnUse"
       id="clipPath57">
      <path
         d="M 0,0 H 612 V 792 H 0 Z"
         transform="matrix(1,0,0,-1,-330.88601,573.83601)"
         id="path57" />
    </clipPath>
    <clipPath
       clipPathUnits="userSpaceOnUse"
       id="clipPath58">
      <path
         d="M 0,0 H 612 V 792 H 0 Z"
         transform="matrix(1,0,0,-1,-344.05501,580.67001)"
         id="path58" />
    </clipPath>
    <clipPath
       clipPathUnits="userSpaceOnUse"
       id="clipPath59">
      <path
         d="M 0,0 H 612 V 792 H 0 Z"
         transform="matrix(1,0,0,-1,-354.57101,580.67001)"
         id="path59" />
    </clipPath>
    <clipPath
       clipPathUnits="userSpaceOnUse"
       id="clipPath60">
      <path
         d="M 0,0 H 612 V 792 H 0 Z"
         transform="matrix(1,0,0,-1,-358.99243,580.67001)"
         id="path60" />
    </clipPath>
  </defs>
  <g
     id="g1">
    <g
       id="g117">
      <text
         xml:space="preserve"
         transform="matrix(1.3333333,0,0,1.3333333,19.616,10.353333)"
         clip-path="url(#clipPath1)"
         id="text60"><tspan
           style="font-variant:normal;font-weight:normal;font-size:9.96264px;font-family:'Segoe UI';writing-mode:lr-tb;fill:#000000;fill-opacity:1;fill-rule:nonzero;stroke:none"
           x="0"
           dx="0 0 2.4508095 0 0 0 2.4508095 0 2.460772 0 0 0 2.5006227 0 2.460772 0 0 2.4508095 0 0 0 0 0 0 0 0 0 0 0 2.4508095 0 2.460772 0 0 0 0 0 0 0 0 0 0 2.4508095 0 0 0 0 0 0 0 0 0 0 0 0 2.4508095 0 0 2.4508095 0 0 2.460772"
           y="0"
           id="tspan60">Asseenin(1),weuseconvolutionsofprobabilitydistributionsfortwoinde-</tspan></text>
      <text
         xml:space="preserve"
         transform="matrix(1.3333333,0,0,1.3333333,-0.30933333,26.293333)"
         clip-path="url(#clipPath2)"
         id="text61"><tspan
           style="font-variant:normal;font-weight:normal;font-size:9.96264px;font-family:'Segoe UI';writing-mode:lr-tb;fill:#000000;fill-opacity:1;fill-rule:nonzero;stroke:none"
           x="0"
           dx="0 0 0 0 0 0 0 2.7297633 0 0 0 0 0 0 2.7297633 0 0 0 0 0 0 0 0 0 0 2.7198007 0 0 0 0 0 2.7297633"
           y="0"
           id="tspan61">pendentpoissondistributedrandomvariables.</tspan></text>
      <path
         d="m 2.6141953,-3.0714141 c 0.035156,0 0.2460938,0 0.2695313,0.011719 h 0.3398437 c 2.015625,0 2.7421875,-0.9492188 2.7421875,-1.8867188 0,-1.4179687 -1.2773437,-1.875 -2.5546875,-1.875 H 0.50482031 c -0.1875,0 -0.33984375,0 -0.33984375,0.1757813 0,0.1640625 0.1875,0.1640625 0.26953125,0.1640625 0.515625,0 0.55078125,0.082031 0.55078125,0.5742187 v 4.99218754 c 0,0.48046875 -0.0351563,0.5625 -0.55078125,0.5625 -0.09375,0 -0.26953125,0 -0.26953125,0.17578125 0,0.17578125 0.15234375,0.17578125 0.33984375,0.17578125 H 3.1649766 c 0.1875,0 0.328125,0 0.328125,-0.17578125 0,-0.17578125 -0.1640625,-0.17578125 -0.2695313,-0.17578125 -0.5742187,0 -0.609375,-0.0820313 -0.609375,-0.5625 z m 1.640625,-0.4453125 c 0.3164063,-0.421875 0.3515625,-1.0429687 0.3515625,-1.4414062 0,-0.5273438 -0.058594,-1.0546875 -0.3164062,-1.4296875 0.5507812,0.1289062 1.3242187,0.4335937 1.3242187,1.4414062 0,0.6914063 -0.4453125,1.1953125 -1.359375,1.4296875 z m -1.640625,-2.4257812 c 0,-0.1992188 0,-0.5390625 0.5976563,-0.5390625 0.7148437,0 1.0429687,0.2695312 1.0429687,1.5234375 0,1.4179687 -0.5273437,1.5351562 -1.1484375,1.5351562 H 2.6141953 Z m -1.359375,5.58984374 c 0.082031,-0.17578125 0.082031,-0.41015625 0.082031,-0.55078125 V -5.9307891 c 0,-0.1289062 0,-0.3632812 -0.082031,-0.5507812 h 1.1367188 c -0.1289063,0.1640625 -0.1289063,0.3632812 -0.1289063,0.515625 v 5.06249999 c 0,0.10546875 0,0.375 0.082031,0.55078125 z m 0,0"
         style="fill:#000000;fill-opacity:1;fill-rule:nonzero;stroke:none"
         aria-label="P"
         transform="matrix(1.3333333,0,0,1.3333333,93.448,65.896)"
         clip-path="url(#clipPath3)"
         id="path61" />
      <path
         d="m 3.2927734,2.3895234 c 0,-0.035156 0,-0.046875 -0.1640625,-0.2226562 -1.2421875,-1.25390626 -1.5703125,-3.12890626 -1.5703125,-4.6640625 0,-1.7226563 0.3867188,-3.4570313 1.6054688,-4.7109375 0.1289062,-0.1171875 0.1289062,-0.1289063 0.1289062,-0.1640625 0,-0.070312 -0.035156,-0.1054688 -0.09375,-0.1054688 -0.1054687,0 -0.9960937,0.6796875 -1.5820312,1.9453125 -0.515625,1.1015625 -0.63281251,2.203125 -0.63281251,3.0351563 0,0.7851562 0.11718751,1.99218749 0.65625001,3.11718749 0.5976562,1.21875001 1.453125,1.87500001 1.5585937,1.87500001 0.058594,0 0.09375,-0.035156 0.09375,-0.1054688 z m 0,0"
         style="fill:#000000;fill-opacity:1;fill-rule:nonzero;stroke:none"
         aria-label="("
         transform="matrix(1.3333333,0,0,1.3333333,101.56667,65.896)"
         clip-path="url(#clipPath4)"
         id="path62" />
      <path
         d="M 4.8269766,-4.0909453 3.9949453,-6.0831328 c -0.035156,-0.070312 -0.046875,-0.1171875 -0.046875,-0.1289063 0,-0.058594 0.1640625,-0.2460937 0.5859375,-0.28125 0.09375,-0.011719 0.1992188,-0.023437 0.1992188,-0.1875 0,-0.1289062 -0.1171875,-0.1289062 -0.1523438,-0.1289062 -0.4101562,0 -0.8320312,0.035156 -1.2539062,0.035156 -0.2460938,0 -0.8671875,-0.035156 -1.1132813,-0.035156 -0.058594,0 -0.1875,0 -0.1875,0.1992187 0,0.1171875 0.1054688,0.1171875 0.234375,0.1171875 0.5976563,0 0.65625,0.09375 0.75,0.3164063 l 1.171875,2.7773437 -2.0976562,2.2617188 -0.1289063,0.1054687 c -0.4921875,0.52734379 -0.96093749,0.69140629 -1.46484374,0.72656254 -0.12890625,0 -0.22265625,0 -0.22265625,0.19921875 0,0 0,0.10546875 0.12890625,0.10546875 0.3046875,0 0.63281254,-0.03515625 0.93750004,-0.03515625 0.3632812,0 0.7617187,0.03515625 1.1132812,0.03515625 0.058594,0 0.1757813,0 0.1757813,-0.19921875 0,-0.10546875 -0.09375,-0.10546875 -0.1171875,-0.10546875 -0.082031,-0.0117188 -0.3984375,-0.0351563 -0.3984375,-0.31640625 0,-0.15234375 0.1523437,-0.31640625 0.2695312,-0.44531249 l 1.0195313,-1.078125 0.890625,-0.9726563 1.0078125,2.37890629 c 0.046875,0.10546875 0.046875,0.1171875 0.046875,0.140625 0,0.0820313 -0.1875,0.24609375 -0.5742188,0.29296875 -0.1054687,0 -0.1992187,0.0117188 -0.1992187,0.1875 0,0.1171875 0.1171875,0.1171875 0.1523437,0.1171875 0.28125,0 0.9726563,-0.03515625 1.2539063,-0.03515625 0.2460937,0 0.8554687,0.03515625 1.1015625,0.03515625 0.070312,0 0.1992187,0 0.1992187,-0.1875 0,-0.1171875 -0.1054687,-0.1171875 -0.1875,-0.1171875 -0.6679687,-0.0117188 -0.6796875,-0.046875 -0.8554687,-0.4453125 C 5.8465078,-1.6768828 5.1785391,-3.2237578 4.9441641,-3.8214141 c 0.6796875,-0.703125 1.734375,-1.8867187 2.0507812,-2.1679687 0.28125,-0.234375 0.6679688,-0.4804688 1.265625,-0.5039063 0.1289063,-0.011719 0.2109375,-0.011719 0.2109375,-0.1992187 0,-0.011719 0,-0.1171875 -0.1289062,-0.1171875 -0.2929688,0 -0.6210938,0.035156 -0.9375,0.035156 -0.3632813,0 -0.7382813,-0.035156 -1.1015625,-0.035156 -0.058594,0 -0.1875,0 -0.1875,0.1992187 0,0.070312 0.046875,0.1054688 0.1171875,0.1171875 0.09375,0.011719 0.3984375,0.023437 0.3984375,0.3046875 0,0.140625 -0.1054688,0.2695313 -0.1875,0.3632813 z m 0,0"
         style="fill:#000000;fill-opacity:1;fill-rule:nonzero;stroke:none"
         aria-label="X"
         transform="matrix(1.3333333,0,0,1.3333333,106.732,65.896)"
         clip-path="url(#clipPath5)"
         id="path63" />
      <path
         d="m 4.0769766,-2.2979766 h 2.7773437 c 0.140625,0 0.328125,0 0.328125,-0.1992187 0,-0.1992188 -0.1875,-0.1992188 -0.328125,-0.1992188 H 4.0769766 v -2.7890625 c 0,-0.1289062 0,-0.328125 -0.1992188,-0.328125 -0.1992187,0 -0.1992187,0.1992188 -0.1992187,0.328125 v 2.7890625 H 0.88947656 c -0.140625,0 -0.328125,0 -0.328125,0.1992188 0,0.1992187 0.1875,0.1992187 0.328125,0.1992187 H 3.6785391 v 2.80078129 c 0,0.12890625 0,0.328125 0.1992187,0.328125 0.1992188,0 0.1992188,-0.19921875 0.1992188,-0.328125 z m 0,0"
         style="fill:#000000;fill-opacity:1;fill-rule:nonzero;stroke:none"
         aria-label="+"
         transform="matrix(1.3333333,0,0,1.3333333,121.732,65.896)"
         clip-path="url(#clipPath6)"
         id="path64" />
      <path
         d="m 5.942125,-5.6729766 0.140625,-0.140625 c 0.3046875,-0.2929687 0.6328125,-0.6328125 1.3125,-0.6796875 0.1054688,-0.011719 0.1992188,-0.011719 0.1992188,-0.1875 0,-0.082031 -0.058594,-0.1289062 -0.1289063,-0.1289062 -0.2578125,0 -0.5507812,0.035156 -0.8203125,0.035156 -0.328125,0 -0.6796875,-0.035156 -0.9960937,-0.035156 -0.058594,0 -0.1875,0 -0.1875,0.1992187 0,0.1054688 0.09375,0.1171875 0.1523437,0.1171875 0.070312,0 0.3515625,0.011719 0.3515625,0.2226563 0,0.1757812 -0.2226562,0.4335937 -0.2695312,0.4804687 l -2.3085938,2.6601563 -1.0898437,-2.953125 c -0.070312,-0.140625 -0.070312,-0.1640625 -0.070312,-0.1757813 0,-0.234375 0.4921875,-0.234375 0.5976562,-0.234375 0.1289063,0 0.234375,0 0.234375,-0.1992187 0,-0.1171875 -0.1171875,-0.1171875 -0.1523437,-0.1171875 -0.28125,0 -0.9726563,0.035156 -1.2539063,0.035156 -0.2460937,0 -0.8671875,-0.035156 -1.11328125,-0.035156 -0.0585938,0 -0.1875,0 -0.1875,0.1992187 0,0.1171875 0.09375,0.1171875 0.22265625,0.1171875 0.5976563,0 0.6445313,0.082031 0.7265625,0.3398438 l 1.2304688,3.2695312 c 0.011719,0.035156 0.035156,0.140625 0.035156,0.1757813 0,0.023437 -0.3984375,1.6289062 -0.4453125,1.80468749 -0.1289062,0.55078125 -0.140625,0.5859375 -0.9375,0.59765625 -0.1875,0 -0.26953125,0 -0.26953125,0.19921875 0,0.10546875 0.11718755,0.10546875 0.14062505,0.10546875 0.28125,0 0.9726562,-0.03515625 1.2539062,-0.03515625 0.28125,0 0.9960938,0.03515625 1.2773438,0.03515625 0.070312,0 0.1875,0 0.1875,-0.19921875 0,-0.10546875 -0.082031,-0.10546875 -0.28125,-0.10546875 -0.011719,0 -0.1992188,0 -0.375,-0.0234375 -0.2109375,-0.0234375 -0.2695313,-0.0351563 -0.2695313,-0.1640625 0,-0.0703125 0.09375,-0.41015625 0.140625,-0.62109374 l 0.3515625,-1.40625 c 0.046875,-0.1875 0.058594,-0.2226563 0.140625,-0.3046875 z m 0,0"
         style="fill:#000000;fill-opacity:1;fill-rule:nonzero;stroke:none"
         aria-label="Y"
         transform="matrix(1.3333333,0,0,1.3333333,135.01467,65.896)"
         clip-path="url(#clipPath7)"
         id="path65" />
      <path
         d="m 6.8431406,-3.2589141 c 0.1523438,0 0.3398438,0 0.3398438,-0.1992187 0,-0.1992188 -0.1875,-0.1992188 -0.328125,-0.1992188 H 0.89001562 c -0.140625,0 -0.328125,0 -0.328125,0.1992188 0,0.1992187 0.1875,0.1992187 0.33984375,0.1992187 z m 0.011719,1.9335938 c 0.140625,0 0.328125,0 0.328125,-0.1992188 0,-0.1992187 -0.1875,-0.1992187 -0.3398438,-0.1992187 H 0.90173437 c -0.15234375,0 -0.33984375,0 -0.33984375,0.1992187 0,0.1992188 0.1875,0.1992188 0.328125,0.1992188 z m 0,0"
         style="fill:#000000;fill-opacity:1;fill-rule:nonzero;stroke:none"
         aria-label="="
         transform="matrix(1.3333333,0,0,1.3333333,149.368,65.896)"
         clip-path="url(#clipPath8)"
         id="path66" />
      <path
         d="m 2.8603437,-6.8096953 c 0,0 0,-0.1054688 -0.1289062,-0.1054688 -0.234375,0 -0.9609375,0.082031 -1.21875,0.1054688 -0.082031,0 -0.1875,0.011719 -0.1875,0.1992187 0,0.1171875 0.09375,0.1171875 0.234375,0.1171875 0.4804687,0 0.5039062,0.070312 0.5039062,0.1640625 l -0.035156,0.1992188 -1.44140625,5.74218749 C 0.55175,-0.24719531 0.55175,-0.23547656 0.55175,-0.16516406 c 0,0.22265625 0.19921875,0.26953125 0.28125,0.26953125 0.12890625,0 0.28125,-0.08203125 0.3398437,-0.2109375 0.058594,-0.0820313 0.5039063,-1.92187499 0.5625,-2.17968749 0.3398438,0.035156 1.1601563,0.1875 1.1601563,0.8554687 0,0.070312 0,0.1054688 -0.035156,0.1992188 -0.023437,0.1289062 -0.035156,0.24609374 -0.035156,0.35156249 0,0.5859375 0.3984375,0.984375 0.9140625,0.984375 0.2929687,0 0.5625,-0.15234375 0.7851562,-0.52734375 C 4.7705,-0.85657031 4.8876875,-1.4073516 4.8876875,-1.4307891 c 0,-0.09375 -0.09375,-0.09375 -0.1289063,-0.09375 -0.09375,0 -0.1054687,0.035156 -0.140625,0.1757813 -0.1992187,0.72656249 -0.421875,1.24218749 -0.8671875,1.24218749 -0.1875,0 -0.3164062,-0.1171875 -0.3164062,-0.46875 0,-0.17578125 0.046875,-0.3984375 0.082031,-0.56249999 0.035156,-0.1640625 0.035156,-0.2109375 0.035156,-0.3046875 0,-0.65625 -0.6210938,-0.9375 -1.4648438,-1.0546875 0.304688,-0.1757813 0.6210943,-0.4921875 0.8554693,-0.7265625 0.4804687,-0.5273438 0.9375,-0.9609375 1.4179687,-0.9609375 0.058594,0 0.070312,0 0.09375,0.011719 0.1171875,0.023437 0.1289063,0.023437 0.2109375,0.082031 0.023437,0 0.023437,0.011719 0.035156,0.035156 -0.4804688,0.035156 -0.5625,0.421875 -0.5625,0.5390625 0,0.1640625 0.1054687,0.3515625 0.375,0.3515625 0.2578125,0 0.5507812,-0.2226562 0.5507812,-0.609375 0,-0.3046875 -0.234375,-0.6328125 -0.6796875,-0.6328125 -0.28125,0 -0.7382812,0.082031 -1.453125,0.8789063 -0.3398437,0.375 -0.7265625,0.7734375 -1.1015625,0.9257812 z m 0,0"
         style="fill:#000000;fill-opacity:1;fill-rule:nonzero;stroke:none"
         aria-label="k"
         transform="matrix(1.3333333,0,0,1.3333333,163.38933,65.896)"
         clip-path="url(#clipPath9)"
         id="path67" />
      <path
         d="m 2.8818047,-2.4971953 c 0,-0.7734375 -0.1171875,-1.9804688 -0.65625,-3.1054688 -0.5976563,-1.21875 -1.46484376,-1.875 -1.55859376,-1.875 -0.0585938,0 -0.10546875,0.046875 -0.10546875,0.1054688 0,0.035156 0,0.046875 0.19921875,0.234375 0.97265626,0.984375 1.53515626,2.5664062 1.53515626,4.640625 0,1.71093749 -0.3632813,3.45703124 -1.59375001,4.7226562 -0.140625,0.1171875 -0.140625,0.1289063 -0.140625,0.1640625 0,0.058594 0.046875,0.1054688 0.10546875,0.1054688 0.09375,0 0.99609376,-0.6796875 1.58203126,-1.94531251 0.5039062,-1.1015625 0.6328125,-2.20312499 0.6328125,-3.04687499 z m 0,0"
         style="fill:#000000;fill-opacity:1;fill-rule:nonzero;stroke:none"
         aria-label=")"
         transform="matrix(1.3333333,0,0,1.3333333,170.724,65.896)"
         clip-path="url(#clipPath10)"
         id="path68" />
      <path
         d="m 6.8443624,-3.2589141 c 0.1523437,0 0.3398437,0 0.3398437,-0.1992187 0,-0.1992188 -0.1875,-0.1992188 -0.328125,-0.1992188 H 0.8912374 c -0.140625,0 -0.328125,0 -0.328125,0.1992188 0,0.1992187 0.1875,0.1992187 0.33984375,0.1992187 z m 0.011719,1.9335938 c 0.140625,0 0.328125,0 0.328125,-0.1992188 0,-0.1992187 -0.1875,-0.1992187 -0.3398437,-0.1992187 H 0.90295615 c -0.15234375,0 -0.33984375,0 -0.33984375,0.1992187 0,0.1992188 0.1875,0.1992188 0.328125,0.1992188 z m 0,0"
         style="fill:#000000;fill-opacity:1;fill-rule:nonzero;stroke:none"
         aria-label="="
         transform="matrix(1.3333333,0,0,1.3333333,179.5695,65.896)"
         clip-path="url(#clipPath11)"
         id="path69" />
      <path
         d="m 4.0298906,-1.9094297 c -0.375,-0.4335937 -0.4804687,-0.5507812 -0.75,-0.7382812 -0.421875,-0.3046875 -0.8671875,-0.421875 -1.2539062,-0.421875 -0.8671875,0 -1.48828127,0.7382812 -1.48828127,1.5703125 0,0.82031246 0.59765627,1.57031246 1.46484377,1.57031246 0.9726562,0 1.6523437,-0.796875 1.8984375,-1.16015626 0.375,0.42187501 0.4804687,0.55078126 0.75,0.73828126 0.421875,0.3046875 0.8671875,0.421875 1.2539062,0.421875 0.8671875,0 1.4882813,-0.73828125 1.4882813,-1.58203126 0,-0.8085937 -0.5976563,-1.5585937 -1.4648438,-1.5585937 -0.9726562,0 -1.6523437,0.7851562 -1.8984375,1.1601562 z m 0.2226563,0.2578125 c 0.28125,-0.4570312 0.890625,-1.1601562 1.734375,-1.1601562 0.7148437,0 1.21875,0.6328125 1.21875,1.3007812 0,0.67968751 -0.5507813,1.19531251 -1.1953125,1.19531251 -0.6445313,0 -1.0898438,-0.52734375 -1.7578125,-1.33593751 z m -0.5742188,0.3046875 c -0.28125,0.44531251 -0.8789062,1.14843751 -1.734375,1.14843751 -0.7148437,0 -1.21874997,-0.6328125 -1.21874997,-1.30078121 0,-0.6679688 0.55078127,-1.1953125 1.19531247,-1.1953125 0.6445313,0 1.0898438,0.5390625 1.7578125,1.3476562 z m 0,0"
         style="fill:#000000;fill-opacity:1;fill-rule:nonzero;stroke:none"
         aria-label="∞"
         transform="matrix(1.3333333,0,0,1.3333333,199.744,49.292)"
         clip-path="url(#clipPath12)"
         id="path70" />
      <path
         d="m 12.609359,13.94532 1.207032,-3.1875 h -0.246094 c -0.386719,1.03125 -1.453125,1.710938 -2.589844,2.015625 -0.210937,0.04687 -1.1835936,0.304688 -3.1054686,0.304688 h -6 l 5.0625,-5.9414064 c 0.070312,-0.082031 0.09375,-0.1171875 0.09375,-0.1640625 0,-0.023437 0,-0.046875 -0.070312,-0.1523438 L 2.3202969,0.48047656 h 5.4609375 c 1.3359375,0 2.2382816,0.140625 2.3320316,0.15234375 0.539062,0.0820313 1.40625,0.2578125 2.191406,0.74999999 0.246094,0.1640625 0.925781,0.609375 1.265625,1.4179688 h 0.246094 L 12.609359,7.8125e-6 H 0.83201563 c -0.22265625,0 -0.234375,0.0117187475 -0.26953125,0.0703124975 0,0.03515625 0,0.22265625 0,0.328125 L 5.8242031,7.6054766 0.66795313,13.652352 c -0.10546875,0.128906 -0.10546875,0.175781 -0.10546875,0.1875 0,0.105468 0.09375,0.105468 0.26953125,0.105468 z m 0,0"
         style="fill:#000000;fill-opacity:1;fill-rule:nonzero;stroke:none"
         aria-label="X"
         transform="matrix(1.3333333,0,0,1.3333333,195.44533,53.277333)"
         clip-path="url(#clipPath13)"
         id="path71" />
      <path
         d="m 3.0246094,-0.5638125 c -0.035156,0.140625 -0.09375,0.375 -0.09375,0.41015625 0,0.15234375 0.1289062,0.22265625 0.234375,0.22265625 0.1289062,0 0.234375,-0.09375 0.2695312,-0.15234375 0.035156,-0.05859375 0.09375,-0.29296875 0.1289063,-0.43359375 0.035156,-0.12890625 0.1171875,-0.45703125 0.1523437,-0.6328125 0.046875,-0.1523437 0.082031,-0.3046875 0.1171875,-0.4570312 0.082031,-0.3046875 0.082031,-0.3164063 0.2226563,-0.5390625 0.2226562,-0.3398438 0.5625,-0.7382813 1.1132812,-0.7382813 0.3867188,0 0.4101563,0.328125 0.4101563,0.4921875 0,0.421875 -0.3046875,1.1953125 -0.4101563,1.48828125 -0.082031,0.1875 -0.1054687,0.2578125 -0.1054687,0.375 0,0.36328125 0.3046875,0.59765625 0.65625,0.59765625 0.703125,0 1.0078125,-0.9609375 1.0078125,-1.06640625 0,-0.0937499 -0.09375,-0.0937499 -0.1054688,-0.0937499 -0.1054687,0 -0.1054687,0.046875 -0.140625,0.1171875 -0.1523437,0.5625 -0.4570312,0.84375 -0.7382812,0.84375 -0.140625,0 -0.1757813,-0.09375 -0.1757813,-0.24609375 0,-0.15234375 0.035156,-0.24609375 0.1640625,-0.5625 0.082031,-0.21093755 0.375,-0.94921875 0.375,-1.34765625 0,-0.1054688 0,-0.3984375 -0.2578125,-0.5976563 -0.1289062,-0.09375 -0.328125,-0.1875 -0.65625,-0.1875 -0.6210937,0 -1.0078125,0.4101563 -1.2304687,0.703125 -0.058594,-0.5976562 -0.5507813,-0.703125 -0.9023438,-0.703125 -0.5859375,0 -0.9726562,0.3515625 -1.1835937,0.6328125 -0.046875,-0.4804687 -0.4570313,-0.6328125 -0.75,-0.6328125 -0.29296877,0 -0.45703127,0.2109375 -0.55078127,0.375 -0.15234375,0.2578125 -0.24609375,0.65625 -0.24609375,0.6914063 0,0.082031 0.09375,0.082031 0.1171875,0.082031 0.09375,0 0.10546875,-0.011719 0.15234375,-0.1992187 0.10546875,-0.421875 0.234375,-0.7617188 0.51562497,-0.7617188 0.1757813,0 0.2226563,0.1523438 0.2226563,0.3398438 0,0.140625 -0.058594,0.3984375 -0.1054688,0.5859375 -0.046875,0.1875 -0.1171875,0.46875 -0.1523437,0.6210937 l -0.22265627,0.9023438 c -0.0351563,0.0820313 -0.0703125,0.2578125 -0.0703125,0.28125 0,0.15234375 0.1171875,0.22265625 0.23437497,0.22265625 0.1289063,0 0.234375,-0.09375 0.2695313,-0.15234375 0.035156,-0.05859375 0.09375,-0.29296875 0.1289062,-0.43359375 0.035156,-0.12890625 0.1054688,-0.45703125 0.1523438,-0.63281255 0.035156,-0.1523437 0.082031,-0.3046875 0.1171875,-0.4570312 0.082031,-0.2929688 0.09375,-0.3515625 0.2929687,-0.6328125 0.1992188,-0.28125 0.5273438,-0.6445313 1.0429688,-0.6445313 0.4101562,0 0.4101562,0.3632813 0.4101562,0.4921875 0,0.1757813 -0.011719,0.2695313 -0.1171875,0.65625 z m 0,0"
         style="fill:#000000;fill-opacity:1;fill-rule:nonzero;stroke:none"
         aria-label="m"
         transform="matrix(1.3333333,0,0,1.3333333,193.6,81.408)"
         clip-path="url(#clipPath14)"
         id="path72" />
      <path
         d="m 5.3559766,-2.3450625 c 0.1054687,0 0.2695312,0 0.2695312,-0.1757812 0,-0.1640625 -0.1757812,-0.1640625 -0.2578125,-0.1640625 H 0.75050781 c -0.09375,0 -0.2578125,0 -0.2578125,0.1640625 0,0.1757812 0.15234375,0.1757812 0.2578125,0.1757812 z m 0.011719,1.53515625 c 0.082031,0 0.2578125,0 0.2578125,-0.1640625 C 5.6255078,-1.14975 5.4614453,-1.14975 5.3559766,-1.14975 H 0.75050781 c -0.10546875,0 -0.2578125,0 -0.2578125,0.17578125 0,0.1640625 0.1640625,0.1640625 0.2578125,0.1640625 z M 9.7124219,-2.227875 c 0,-0.7617187 -0.09375,-1.3125 -0.4101563,-1.8046875 -0.2226562,-0.3164062 -0.6445312,-0.5976562 -1.2070312,-0.5976562 -1.6171875,0 -1.6171875,1.8984375 -1.6171875,2.4023437 0,0.5039063 0,2.3671875 1.6171875,2.3671875 1.6171875,0 1.6171875,-1.8632812 1.6171875,-2.3671875 z m -1.6171875,2.16796875 c -0.3164063,0 -0.75,-0.1875 -0.890625,-0.76171875 -0.09375,-0.4101562 -0.09375,-0.984375 -0.09375,-1.5 0,-0.5039062 0,-1.03125 0.1054687,-1.4179687 C 7.3686719,-4.290375 7.8139844,-4.431 8.0952344,-4.431 c 0.375,0 0.7382812,0.2226563 0.8671875,0.6328125 0.1054687,0.375 0.1171875,0.8789063 0.1171875,1.4765625 0,0.515625 0,1.0429688 -0.09375,1.4765625 -0.140625,0.6328125 -0.609375,0.78515625 -0.890625,0.78515625 z m 0,0"
         style="fill:#000000;fill-opacity:1;fill-rule:nonzero;stroke:none"
         aria-label="=0"
         transform="matrix(1.3333333,0,0,1.3333333,203.02667,81.408)"
         clip-path="url(#clipPath15)"
         id="path73" />
      <path
         d="m 2.6138359,-3.0714141 c 0.035156,0 0.2460938,0 0.2695313,0.011719 h 0.3398437 c 2.015625,0 2.7421875,-0.9492188 2.7421875,-1.8867188 0,-1.4179687 -1.2773437,-1.875 -2.5546875,-1.875 H 0.50446094 c -0.1875,0 -0.33984375,0 -0.33984375,0.1757813 0,0.1640625 0.1875,0.1640625 0.26953125,0.1640625 0.515625,0 0.55078125,0.082031 0.55078125,0.5742187 v 4.99218754 c 0,0.48046875 -0.0351563,0.5625 -0.55078125,0.5625 -0.09375,0 -0.26953125,0 -0.26953125,0.17578125 0,0.17578125 0.15234375,0.17578125 0.33984375,0.17578125 H 3.1646172 c 0.1875,0 0.328125,0 0.328125,-0.17578125 0,-0.17578125 -0.1640625,-0.17578125 -0.2695313,-0.17578125 -0.5742187,0 -0.609375,-0.0820313 -0.609375,-0.5625 z m 1.640625,-0.4453125 c 0.3164063,-0.421875 0.3515625,-1.0429687 0.3515625,-1.4414062 0,-0.5273438 -0.058594,-1.0546875 -0.3164062,-1.4296875 0.5507812,0.1289062 1.3242187,0.4335937 1.3242187,1.4414062 0,0.6914063 -0.4453125,1.1953125 -1.359375,1.4296875 z m -1.640625,-2.4257812 c 0,-0.1992188 0,-0.5390625 0.5976563,-0.5390625 0.7148437,0 1.0429687,0.2695312 1.0429687,1.5234375 0,1.4179687 -0.5273437,1.5351562 -1.1484375,1.5351562 H 2.6138359 Z m -1.359375,5.58984374 c 0.082031,-0.17578125 0.082031,-0.41015625 0.082031,-0.55078125 V -5.9307891 c 0,-0.1289062 0,-0.3632812 -0.082031,-0.5507812 h 1.1367188 c -0.1289063,0.1640625 -0.1289063,0.3632812 -0.1289063,0.515625 v 5.06249999 c 0,0.10546875 0,0.375 0.082031,0.55078125 z m 0,0"
         style="fill:#000000;fill-opacity:1;fill-rule:nonzero;stroke:none"
         aria-label="P"
         transform="matrix(1.3333333,0,0,1.3333333,218.69067,65.896)"
         clip-path="url(#clipPath16)"
         id="path74" />
      <path
         d="m 3.2934141,2.3895234 c 0,-0.035156 0,-0.046875 -0.1640625,-0.2226562 -1.2421875,-1.25390626 -1.5703125,-3.12890626 -1.5703125,-4.6640625 0,-1.7226563 0.3867187,-3.4570313 1.6054687,-4.7109375 0.1289063,-0.1171875 0.1289063,-0.1289063 0.1289063,-0.1640625 0,-0.070312 -0.035156,-0.1054688 -0.09375,-0.1054688 -0.1054688,0 -0.9960938,0.6796875 -1.5820313,1.9453125 -0.515625,1.1015625 -0.63281249,2.203125 -0.63281249,3.0351563 0,0.7851562 0.11718749,1.99218749 0.65624999,3.11718749 0.5976563,1.21875001 1.453125,1.87500001 1.5585938,1.87500001 0.058594,0 0.09375,-0.035156 0.09375,-0.1054688 z m 0,0"
         style="fill:#000000;fill-opacity:1;fill-rule:nonzero;stroke:none"
         aria-label="("
         transform="matrix(1.3333333,0,0,1.3333333,226.808,65.896)"
         clip-path="url(#clipPath17)"
         id="path75" />
      <path
         d="M 4.8276172,-4.0909453 3.9955859,-6.0831328 c -0.035156,-0.070312 -0.046875,-0.1171875 -0.046875,-0.1289063 0,-0.058594 0.1640625,-0.2460937 0.5859375,-0.28125 0.09375,-0.011719 0.1992188,-0.023437 0.1992188,-0.1875 0,-0.1289062 -0.1171875,-0.1289062 -0.1523438,-0.1289062 -0.4101562,0 -0.8320312,0.035156 -1.2539062,0.035156 -0.2460938,0 -0.8671875,-0.035156 -1.1132813,-0.035156 -0.058594,0 -0.1875,0 -0.1875,0.1992187 0,0.1171875 0.1054688,0.1171875 0.234375,0.1171875 0.5976563,0 0.65625,0.09375 0.75,0.3164063 l 1.171875,2.7773437 -2.0976562,2.2617188 -0.1289063,0.1054687 c -0.4921875,0.52734379 -0.96093746,0.69140629 -1.46484371,0.72656254 -0.12890625,0 -0.22265625,0 -0.22265625,0.19921875 0,0 0,0.10546875 0.12890625,0.10546875 0.3046875,0 0.63281251,-0.03515625 0.93750001,-0.03515625 0.3632812,0 0.7617187,0.03515625 1.1132812,0.03515625 0.058594,0 0.1757813,0 0.1757813,-0.19921875 0,-0.10546875 -0.09375,-0.10546875 -0.1171875,-0.10546875 -0.082031,-0.0117188 -0.3984375,-0.0351563 -0.3984375,-0.31640625 0,-0.15234375 0.1523437,-0.31640625 0.2695312,-0.44531249 l 1.0195313,-1.078125 0.890625,-0.9726563 1.0078125,2.37890629 c 0.046875,0.10546875 0.046875,0.1171875 0.046875,0.140625 0,0.0820313 -0.1875,0.24609375 -0.5742188,0.29296875 -0.1054687,0 -0.1992187,0.0117188 -0.1992187,0.1875 0,0.1171875 0.1171875,0.1171875 0.1523437,0.1171875 0.28125,0 0.9726563,-0.03515625 1.2539063,-0.03515625 0.2460937,0 0.8554687,0.03515625 1.1015625,0.03515625 0.070312,0 0.1992187,0 0.1992187,-0.1875 0,-0.1171875 -0.1054687,-0.1171875 -0.1875,-0.1171875 -0.6679687,-0.0117188 -0.6796875,-0.046875 -0.8554687,-0.4453125 C 5.8471484,-1.6768828 5.1791797,-3.2237578 4.9448047,-3.8214141 c 0.6796875,-0.703125 1.734375,-1.8867187 2.0507812,-2.1679687 0.28125,-0.234375 0.6679688,-0.4804688 1.265625,-0.5039063 0.1289063,-0.011719 0.2109375,-0.011719 0.2109375,-0.1992187 0,-0.011719 0,-0.1171875 -0.1289062,-0.1171875 -0.2929688,0 -0.6210938,0.035156 -0.9375,0.035156 -0.3632813,0 -0.7382813,-0.035156 -1.1015625,-0.035156 -0.058594,0 -0.1875,0 -0.1875,0.1992187 0,0.070312 0.046875,0.1054688 0.1171875,0.1171875 0.09375,0.011719 0.3984375,0.023437 0.3984375,0.3046875 0,0.140625 -0.1054688,0.2695313 -0.1875,0.3632813 z m 0,0"
         style="fill:#000000;fill-opacity:1;fill-rule:nonzero;stroke:none"
         aria-label="X"
         transform="matrix(1.3333333,0,0,1.3333333,231.97333,65.896)"
         clip-path="url(#clipPath18)"
         id="path76" />
      <path
         d="m 6.8439531,-3.2589141 c 0.1523438,0 0.3398438,0 0.3398438,-0.1992187 0,-0.1992188 -0.1875,-0.1992188 -0.328125,-0.1992188 H 0.89082813 c -0.140625,0 -0.328125,0 -0.328125,0.1992188 0,0.1992187 0.1875,0.1992187 0.33984375,0.1992187 z m 0.011719,1.9335938 c 0.140625,0 0.328125,0 0.328125,-0.1992188 0,-0.1992187 -0.1875,-0.1992187 -0.3398438,-0.1992187 H 0.90254688 c -0.15234375,0 -0.33984375,0 -0.33984375,0.1992187 0,0.1992188 0.1875,0.1992188 0.328125,0.1992188 z m 0,0"
         style="fill:#000000;fill-opacity:1;fill-rule:nonzero;stroke:none"
         aria-label="="
         transform="matrix(1.3333333,0,0,1.3333333,247.71067,65.896)"
         clip-path="url(#clipPath19)"
         id="path77" />
      <path
         d="m 0.87775781,-0.58703906 c -0.0351563,0.15234375 -0.09375,0.375 -0.09375,0.421875 0,0.1875 0.140625,0.26953125 0.29296879,0.26953125 0.1171875,0 0.2929687,-0.0703125 0.3632812,-0.26953125 0.011719,-0.0234375 0.1289063,-0.4921875 0.1875,-0.73828125 L 1.8504141,-1.8057891 c 0.058594,-0.2226562 0.1171875,-0.4335937 0.1757812,-0.6679687 0.035156,-0.1640625 0.1171875,-0.4570313 0.1289063,-0.4921875 0.140625,-0.3164063 0.6679687,-1.21875 1.6171875,-1.21875 0.4453125,0 0.5390625,0.3632812 0.5390625,0.6914062 0,0.2578125 -0.070312,0.5390625 -0.1523438,0.8320313 l -0.2695312,1.1601562 -0.1992188,0.75000004 c -0.046875,0.19921875 -0.140625,0.5390625 -0.140625,0.5859375 0,0.1875 0.140625,0.26953125 0.2929688,0.26953125 0.3046875,0 0.375,-0.24609375 0.4453125,-0.5625 0.140625,-0.56249999 0.515625,-2.01562499 0.5976562,-2.40234379 0.035156,-0.1289062 0.5625,-1.3242187 1.6523438,-1.3242187 0.421875,0 0.5390625,0.3398437 0.5390625,0.6914062 0,0.5742188 -0.421875,1.7109375 -0.6210938,2.2382813 -0.09375,0.234375 -0.1289062,0.35156249 -0.1289062,0.55078124 0,0.46875 0.3515625,0.80859375 0.8085937,0.80859375 0.9375,0 1.3125,-1.45312499 1.3125,-1.53515629 0,-0.09375 -0.09375,-0.09375 -0.1171875,-0.09375 -0.1054687,0 -0.1054687,0.023437 -0.1523437,0.1757813 -0.1523438,0.52734374 -0.46875,1.24218749 -1.0195313,1.24218749 -0.1640625,0 -0.234375,-0.10546875 -0.234375,-0.328125 0,-0.2578125 0.082031,-0.4921875 0.1757813,-0.71484379 0.1875,-0.515625 0.609375,-1.6171875 0.609375,-2.1914062 0,-0.6445313 -0.3984375,-1.0664063 -1.1484375,-1.0664063 -0.75,0 -1.2539063,0.4453125 -1.6171875,0.9726563 -0.011719,-0.1289063 -0.046875,-0.46875 -0.328125,-0.7148438 -0.2460938,-0.1992187 -0.5625,-0.2578125 -0.8085938,-0.2578125 -0.9023437,0 -1.3828125,0.6445313 -1.5585937,0.8671875 -0.046875,-0.5625 -0.46875,-0.8671875 -0.9140625,-0.8671875 -0.45703129,0 -0.64453129,0.3867188 -0.73828129,0.5742188 -0.17578125,0.3398437 -0.3046875,0.9375 -0.3046875,0.9609375 0,0.1054687 0.09375,0.1054687 0.1171875,0.1054687 0.09375,0 0.10546875,-0.011719 0.1640625,-0.234375 0.17578125,-0.703125 0.375,-1.1835937 0.72656249,-1.1835937 0.1640625,0 0.3164063,0.082031 0.3164063,0.4570312 0,0.2109375 -0.035156,0.3164063 -0.1640625,0.8320313 z m 0,0"
         style="fill:#000000;fill-opacity:1;fill-rule:nonzero;stroke:none"
         aria-label="m"
         transform="matrix(1.3333333,0,0,1.3333333,261.732,65.896)"
         clip-path="url(#clipPath20)"
         id="path78" />
      <path
         d="m 2.8817109,-2.4971953 c 0,-0.7734375 -0.1171875,-1.9804688 -0.65625,-3.1054688 -0.5976562,-1.21875 -1.46484371,-1.875 -1.55859371,-1.875 -0.0585938,0 -0.10546875,0.046875 -0.10546875,0.1054688 0,0.035156 0,0.046875 0.19921875,0.234375 0.97265621,0.984375 1.53515621,2.5664062 1.53515621,4.640625 0,1.71093749 -0.3632812,3.45703124 -1.59374996,4.7226562 -0.140625,0.1171875 -0.140625,0.1289063 -0.140625,0.1640625 0,0.058594 0.046875,0.1054688 0.10546875,0.1054688 0.09375,0 0.99609371,-0.6796875 1.58203121,-1.94531251 0.5039063,-1.1015625 0.6328125,-2.20312499 0.6328125,-3.04687499 z m 0,0"
         style="fill:#000000;fill-opacity:1;fill-rule:nonzero;stroke:none"
         aria-label=")"
         transform="matrix(1.3333333,0,0,1.3333333,273.396,65.896)"
         clip-path="url(#clipPath21)"
         id="path79" />
      <path
         d="m 2.6123594,-3.0714141 c 0.035156,0 0.2460937,0 0.2695312,0.011719 h 0.3398438 c 2.015625,0 2.7421875,-0.9492188 2.7421875,-1.8867188 0,-1.4179687 -1.2773438,-1.875 -2.5546875,-1.875 H 0.50298438 c -0.1875,0 -0.33984375,0 -0.33984375,0.1757813 0,0.1640625 0.1875,0.1640625 0.26953125,0.1640625 0.515625,0 0.55078125,0.082031 0.55078125,0.5742187 v 4.99218754 c 0,0.48046875 -0.0351563,0.5625 -0.55078125,0.5625 -0.09375,0 -0.26953125,0 -0.26953125,0.17578125 0,0.17578125 0.15234375,0.17578125 0.33984375,0.17578125 H 3.1631406 c 0.1875,0 0.328125,0 0.328125,-0.17578125 0,-0.17578125 -0.1640625,-0.17578125 -0.2695312,-0.17578125 -0.5742188,0 -0.609375,-0.0820313 -0.609375,-0.5625 z m 1.640625,-0.4453125 c 0.3164062,-0.421875 0.3515625,-1.0429687 0.3515625,-1.4414062 0,-0.5273438 -0.058594,-1.0546875 -0.3164063,-1.4296875 0.5507813,0.1289062 1.3242188,0.4335937 1.3242188,1.4414062 0,0.6914063 -0.4453125,1.1953125 -1.359375,1.4296875 z m -1.640625,-2.4257812 c 0,-0.1992188 0,-0.5390625 0.5976562,-0.5390625 0.7148438,0 1.0429688,0.2695312 1.0429688,1.5234375 0,1.4179687 -0.5273438,1.5351562 -1.1484375,1.5351562 H 2.6123594 Z m -1.359375,5.58984374 c 0.082031,-0.17578125 0.082031,-0.41015625 0.082031,-0.55078125 V -5.9307891 c 0,-0.1289062 0,-0.3632812 -0.082031,-0.5507812 h 1.1367187 c -0.1289062,0.1640625 -0.1289062,0.3632812 -0.1289062,0.515625 v 5.06249999 c 0,0.10546875 0,0.375 0.082031,0.55078125 z m 0,0"
         style="fill:#000000;fill-opacity:1;fill-rule:nonzero;stroke:none"
         aria-label="P"
         transform="matrix(1.3333333,0,0,1.3333333,280.77467,65.896)"
         clip-path="url(#clipPath22)"
         id="path80" />
      <path
         d="m 3.2938672,2.3895234 c 0,-0.035156 0,-0.046875 -0.1640625,-0.2226562 -1.2421875,-1.25390626 -1.5703125,-3.12890626 -1.5703125,-4.6640625 0,-1.7226563 0.3867187,-3.4570313 1.6054687,-4.7109375 0.1289063,-0.1171875 0.1289063,-0.1289063 0.1289063,-0.1640625 0,-0.070312 -0.035156,-0.1054688 -0.09375,-0.1054688 -0.1054688,0 -0.9960938,0.6796875 -1.5820313,1.9453125 -0.515625,1.1015625 -0.63281246,2.203125 -0.63281246,3.0351563 0,0.7851562 0.11718746,1.99218749 0.65624996,3.11718749 0.5976563,1.21875001 1.453125,1.87500001 1.5585938,1.87500001 0.058594,0 0.09375,-0.035156 0.09375,-0.1054688 z m 0,0"
         style="fill:#000000;fill-opacity:1;fill-rule:nonzero;stroke:none"
         aria-label="("
         transform="matrix(1.3333333,0,0,1.3333333,288.89333,65.896)"
         clip-path="url(#clipPath23)"
         id="path81" />
      <path
         d="M 4.8280703,-4.0909453 3.9960391,-6.0831328 c -0.035156,-0.070312 -0.046875,-0.1171875 -0.046875,-0.1289063 0,-0.058594 0.1640625,-0.2460937 0.5859375,-0.28125 0.09375,-0.011719 0.1992187,-0.023437 0.1992187,-0.1875 0,-0.1289062 -0.1171875,-0.1289062 -0.1523437,-0.1289062 -0.4101563,0 -0.8320313,0.035156 -1.2539063,0.035156 -0.2460937,0 -0.8671875,-0.035156 -1.1132812,-0.035156 -0.058594,0 -0.1875,0 -0.1875,0.1992187 0,0.1171875 0.1054687,0.1171875 0.234375,0.1171875 0.5976562,0 0.65625,0.09375 0.75,0.3164063 l 1.171875,2.7773437 -2.0976563,2.2617188 -0.1289062,0.1054687 c -0.4921875,0.52734379 -0.96093754,0.69140629 -1.46484379,0.72656254 -0.12890625,0 -0.22265625,0 -0.22265625,0.19921875 0,0 0,0.10546875 0.12890625,0.10546875 0.3046875,0 0.63281249,-0.03515625 0.93749999,-0.03515625 0.3632813,0 0.7617188,0.03515625 1.1132813,0.03515625 0.058594,0 0.1757812,0 0.1757812,-0.19921875 0,-0.10546875 -0.09375,-0.10546875 -0.1171875,-0.10546875 -0.082031,-0.0117188 -0.3984375,-0.0351563 -0.3984375,-0.31640625 0,-0.15234375 0.1523438,-0.31640625 0.2695313,-0.44531249 l 1.0195312,-1.078125 0.890625,-0.9726563 1.0078125,2.37890629 c 0.046875,0.10546875 0.046875,0.1171875 0.046875,0.140625 0,0.0820313 -0.1875,0.24609375 -0.5742187,0.29296875 -0.1054688,0 -0.1992188,0.0117188 -0.1992188,0.1875 0,0.1171875 0.1171875,0.1171875 0.1523438,0.1171875 0.28125,0 0.9726562,-0.03515625 1.2539062,-0.03515625 0.2460938,0 0.8554688,0.03515625 1.1015625,0.03515625 0.070312,0 0.1992188,0 0.1992188,-0.1875 0,-0.1171875 -0.1054688,-0.1171875 -0.1875,-0.1171875 -0.6679688,-0.0117188 -0.6796875,-0.046875 -0.8554688,-0.4453125 C 5.8476016,-1.6768828 5.1796328,-3.2237578 4.9452578,-3.8214141 c 0.6796875,-0.703125 1.734375,-1.8867187 2.0507813,-2.1679687 0.28125,-0.234375 0.6679687,-0.4804688 1.265625,-0.5039063 0.1289062,-0.011719 0.2109375,-0.011719 0.2109375,-0.1992187 0,-0.011719 0,-0.1171875 -0.1289063,-0.1171875 -0.2929687,0 -0.6210937,0.035156 -0.9375,0.035156 -0.3632812,0 -0.7382812,-0.035156 -1.1015625,-0.035156 -0.058594,0 -0.1875,0 -0.1875,0.1992187 0,0.070312 0.046875,0.1054688 0.1171875,0.1171875 0.09375,0.011719 0.3984375,0.023437 0.3984375,0.3046875 0,0.140625 -0.1054687,0.2695313 -0.1875,0.3632813 z m 0,0"
         style="fill:#000000;fill-opacity:1;fill-rule:nonzero;stroke:none"
         aria-label="X"
         transform="matrix(1.3333333,0,0,1.3333333,294.05867,65.896)"
         clip-path="url(#clipPath24)"
         id="path82" />
      <path
         d="m 6.8444062,-3.2589141 c 0.1523438,0 0.3398438,0 0.3398438,-0.1992187 0,-0.1992188 -0.1875,-0.1992188 -0.328125,-0.1992188 H 0.89128125 c -0.140625,0 -0.328125,0 -0.328125,0.1992188 0,0.1992187 0.1875,0.1992187 0.33984375,0.1992187 z m 0.011719,1.9335938 c 0.140625,0 0.328125,0 0.328125,-0.1992188 0,-0.1992187 -0.1875,-0.1992187 -0.3398438,-0.1992187 H 0.903 c -0.15234375,0 -0.33984375,0 -0.33984375,0.1992187 0,0.1992188 0.1875,0.1992188 0.328125,0.1992188 z m 0,0"
         style="fill:#000000;fill-opacity:1;fill-rule:nonzero;stroke:none"
         aria-label="="
         transform="matrix(1.3333333,0,0,1.3333333,309.796,65.896)"
         clip-path="url(#clipPath25)"
         id="path83" />
      <path
         d="m 0.87821094,-0.58703906 c -0.0351563,0.15234375 -0.09375,0.375 -0.09375,0.421875 0,0.1875 0.140625,0.26953125 0.29296876,0.26953125 0.1171875,0 0.2929687,-0.0703125 0.3632812,-0.26953125 0.011719,-0.0234375 0.1289063,-0.4921875 0.1875,-0.73828125 L 1.8508672,-1.8057891 c 0.058594,-0.2226562 0.1171875,-0.4335937 0.1757812,-0.6679687 0.035156,-0.1640625 0.1171875,-0.4570313 0.1289063,-0.4921875 0.140625,-0.3164063 0.6679687,-1.21875 1.6171875,-1.21875 0.4453125,0 0.5390625,0.3632812 0.5390625,0.6914062 0,0.2578125 -0.070312,0.5390625 -0.1523438,0.8320313 l -0.2695312,1.1601562 -0.1992188,0.75000004 c -0.046875,0.19921875 -0.140625,0.5390625 -0.140625,0.5859375 0,0.1875 0.140625,0.26953125 0.2929688,0.26953125 0.3046875,0 0.375,-0.24609375 0.4453125,-0.5625 0.140625,-0.56249999 0.515625,-2.01562499 0.5976562,-2.40234379 0.035156,-0.1289062 0.5625,-1.3242187 1.6523438,-1.3242187 0.421875,0 0.5390625,0.3398437 0.5390625,0.6914062 0,0.5742188 -0.421875,1.7109375 -0.6210938,2.2382813 -0.09375,0.234375 -0.1289062,0.35156249 -0.1289062,0.55078124 0,0.46875 0.3515625,0.80859375 0.8085937,0.80859375 0.9375,0 1.3125,-1.45312499 1.3125,-1.53515629 0,-0.09375 -0.09375,-0.09375 -0.1171875,-0.09375 -0.1054687,0 -0.1054687,0.023437 -0.1523437,0.1757813 -0.1523438,0.52734374 -0.46875,1.24218749 -1.0195313,1.24218749 -0.1640625,0 -0.234375,-0.10546875 -0.234375,-0.328125 0,-0.2578125 0.082031,-0.4921875 0.1757813,-0.71484379 0.1875,-0.515625 0.609375,-1.6171875 0.609375,-2.1914062 0,-0.6445313 -0.3984375,-1.0664063 -1.1484375,-1.0664063 -0.75,0 -1.2539063,0.4453125 -1.6171875,0.9726563 -0.011719,-0.1289063 -0.046875,-0.46875 -0.328125,-0.7148438 -0.2460938,-0.1992187 -0.5625,-0.2578125 -0.8085938,-0.2578125 -0.9023437,0 -1.3828125,0.6445313 -1.5585937,0.8671875 -0.046875,-0.5625 -0.46875,-0.8671875 -0.9140625,-0.8671875 -0.45703126,0 -0.64453126,0.3867188 -0.73828126,0.5742188 -0.17578125,0.3398437 -0.3046875,0.9375 -0.3046875,0.9609375 0,0.1054687 0.09375,0.1054687 0.1171875,0.1054687 0.09375,0 0.10546875,-0.011719 0.1640625,-0.234375 0.17578125,-0.703125 0.375,-1.1835937 0.72656246,-1.1835937 0.1640625,0 0.3164063,0.082031 0.3164063,0.4570312 0,0.2109375 -0.035156,0.3164063 -0.1640625,0.8320313 z m 0,0"
         style="fill:#000000;fill-opacity:1;fill-rule:nonzero;stroke:none"
         aria-label="m"
         transform="matrix(1.3333333,0,0,1.3333333,323.81733,65.896)"
         clip-path="url(#clipPath26)"
         id="path84" />
      <path
         d="m 6.5636953,-2.2979766 c 0.1757813,0 0.3515625,0 0.3515625,-0.1992187 0,-0.1992188 -0.1757812,-0.1992188 -0.3515625,-0.1992188 h -5.390625 c -0.1640625,0 -0.33984374,0 -0.33984374,0.1992188 0,0.1992187 0.17578124,0.1992187 0.33984374,0.1992187 z m 0,0"
         style="fill:#000000;fill-opacity:1;fill-rule:nonzero;stroke:none"
         aria-label="−"
         transform="matrix(1.3333333,0,0,1.3333333,338.432,65.896)"
         clip-path="url(#clipPath27)"
         id="path85" />
      <path
         d="m 2.8585078,-6.8096953 c 0,0 0,-0.1054688 -0.1289062,-0.1054688 -0.234375,0 -0.9609375,0.082031 -1.21875,0.1054688 -0.082031,0 -0.1875,0.011719 -0.1875,0.1992187 0,0.1171875 0.09375,0.1171875 0.234375,0.1171875 0.4804687,0 0.5039062,0.070312 0.5039062,0.1640625 l -0.035156,0.1992188 -1.44140629,5.74218749 c -0.0351563,0.140625 -0.0351563,0.15234375 -0.0351563,0.22265625 0,0.22265625 0.19921875,0.26953125 0.28125,0.26953125 0.12890625,0 0.28124999,-0.08203125 0.33984369,-0.2109375 0.058594,-0.0820313 0.5039063,-1.92187499 0.5625,-2.17968749 0.3398438,0.035156 1.1601563,0.1875 1.1601563,0.8554687 0,0.070312 0,0.1054688 -0.035156,0.1992188 -0.023437,0.1289062 -0.035156,0.24609374 -0.035156,0.35156249 0,0.5859375 0.3984375,0.984375 0.9140625,0.984375 0.2929687,0 0.5625,-0.15234375 0.7851562,-0.52734375 0.2460938,-0.43359375 0.3632813,-0.98437504 0.3632813,-1.00781254 0,-0.09375 -0.09375,-0.09375 -0.1289063,-0.09375 -0.09375,0 -0.1054687,0.035156 -0.140625,0.1757813 -0.1992187,0.72656249 -0.421875,1.24218749 -0.8671875,1.24218749 -0.1875,0 -0.3164062,-0.1171875 -0.3164062,-0.46875 0,-0.17578125 0.046875,-0.3984375 0.082031,-0.56249999 0.035156,-0.1640625 0.035156,-0.2109375 0.035156,-0.3046875 0,-0.65625 -0.6210938,-0.9375 -1.4648438,-1.0546875 0.3046875,-0.1757813 0.6210938,-0.4921875 0.8554688,-0.7265625 0.4804687,-0.5273438 0.9375,-0.9609375 1.4179686,-0.9609375 0.058594,0 0.070312,0 0.09375,0.011719 0.1171875,0.023437 0.1289063,0.023437 0.2109375,0.082031 0.023437,0 0.023437,0.011719 0.035156,0.035156 -0.4804688,0.035156 -0.5625,0.421875 -0.5625,0.5390625 0,0.1640625 0.1054687,0.3515625 0.375,0.3515625 0.2578125,0 0.5507812,-0.2226562 0.5507812,-0.609375 0,-0.3046875 -0.234375,-0.6328125 -0.6796875,-0.6328125 -0.28125,0 -0.7382811,0.082031 -1.4531249,0.8789063 -0.3398437,0.375 -0.7265625,0.7734375 -1.1015626,0.9257812 z m 0,0"
         style="fill:#000000;fill-opacity:1;fill-rule:nonzero;stroke:none"
         aria-label="k"
         transform="matrix(1.3333333,0,0,1.3333333,351.716,65.896)"
         clip-path="url(#clipPath28)"
         id="path86" />
      <path
         d="m 2.8838984,-2.4971953 c 0,-0.7734375 -0.1171875,-1.9804688 -0.65625,-3.1054688 -0.5976562,-1.21875 -1.46484371,-1.875 -1.55859371,-1.875 -0.0585938,0 -0.10546875,0.046875 -0.10546875,0.1054688 0,0.035156 0,0.046875 0.19921875,0.234375 0.97265621,0.984375 1.53515621,2.5664062 1.53515621,4.640625 0,1.71093749 -0.3632812,3.45703124 -1.59374996,4.7226562 -0.140625,0.1171875 -0.140625,0.1289063 -0.140625,0.1640625 0,0.058594 0.046875,0.1054688 0.10546875,0.1054688 0.09375,0 0.99609371,-0.6796875 1.58203121,-1.94531251 0.5039063,-1.1015625 0.6328125,-2.20312499 0.6328125,-3.04687499 z m 0,0"
         style="fill:#000000;fill-opacity:1;fill-rule:nonzero;stroke:none"
         aria-label=")"
         transform="matrix(1.3333333,0,0,1.3333333,359.04933,65.896)"
         clip-path="url(#clipPath29)"
         id="path87" />
      <text
         xml:space="preserve"
         transform="matrix(1.3333333,0,0,1.3333333,442.79467,65.896)"
         clip-path="url(#clipPath30)"
         id="text87"><tspan
           style="font-variant:normal;font-weight:normal;font-size:9.96264px;font-family:'Segoe UI';writing-mode:lr-tb;fill:#000000;fill-opacity:1;fill-rule:nonzero;stroke:none"
           x="0"
           y="0"
           id="tspan87">(1)</tspan></text>
      <path
         d="m 6.8450234,-3.2567578 c 0.1523438,0 0.3398438,0 0.3398438,-0.1992188 0,-0.1992187 -0.1875,-0.1992187 -0.328125,-0.1992187 H 0.89189844 c -0.140625,0 -0.328125,0 -0.328125,0.1992187 0,0.1992188 0.1875,0.1992188 0.33984375,0.1992188 z m 0.011719,1.9335937 c 0.140625,0 0.328125,0 0.328125,-0.1992187 0,-0.1992188 -0.1875,-0.1992188 -0.3398438,-0.1992188 H 0.90361719 c -0.15234375,0 -0.33984375,0 -0.33984375,0.1992188 0,0.1992187 0.1875,0.1992187 0.328125,0.1992187 z m 0,0"
         style="fill:#000000;fill-opacity:1;fill-rule:nonzero;stroke:none"
         aria-label="="
         transform="matrix(1.3333333,0,0,1.3333333,123.70533,112.44)"
         clip-path="url(#clipPath31)"
         id="path88" />
      <path
         d="m 2.1805391,-4.6289531 c 0.011719,-0.011719 0.035156,-0.1054688 0.035156,-0.1171875 0,-0.035156 -0.035156,-0.09375 -0.1171875,-0.09375 -0.140625,0 -0.7148437,0.058594 -0.890625,0.070312 -0.058594,0.011719 -0.1523437,0.011719 -0.1523437,0.1640625 0,0.09375 0.09375,0.09375 0.1757812,0.09375 0.3398438,0 0.3398438,0.046875 0.3398438,0.1054687 0,0.046875 -0.011719,0.09375 -0.035156,0.1523438 l -0.97265624,3.94921873 c -0.0351563,0.12890625 -0.0351563,0.140625 -0.0351563,0.15234375 0,0.10546875 0.0820313,0.22265625 0.234375,0.22265625 0.1875,0 0.28124994,-0.140625 0.31640624,-0.29296875 0.011719,-0.0234375 0.3164062,-1.25390628 0.3398437,-1.34765628 0.5039063,0.046875 0.9023439,0.1992188 0.9023439,0.5625 0,0.0351563 0,0.0703125 -0.023437,0.14062503 -0.023437,0.10546875 -0.023437,0.140625 -0.023437,0.22265625 0,0.4921875 0.3984375,0.71484375 0.7382812,0.71484375 0.6796875,0 0.890625,-1.0546875 0.890625,-1.06640625 0,-0.09375 -0.09375,-0.09375 -0.1171875,-0.09375 -0.09375,0 -0.1054687,0.035156 -0.140625,0.16406246 -0.082031,0.3046875 -0.2695312,0.796875 -0.609375,0.796875 -0.1875,0 -0.2460937,-0.17578125 -0.2460937,-0.36328125 0,-0.1171875 0,-0.12890625 0.046875,-0.3046875 0,-0.0234375 0.035156,-0.140625 0.035156,-0.22265621 0,-0.6210938 -0.84375,-0.7148438 -1.1367187,-0.7382813 0.1992187,-0.1289062 0.4570312,-0.3515625 0.5859375,-0.4570312 0.3515625,-0.3398438 0.703125,-0.6679688 1.0898437,-0.6679688 0.082031,0 0.1757813,0.023437 0.234375,0.09375 -0.3046875,0.046875 -0.3632812,0.28125 -0.3632812,0.3867188 0,0.1523437 0.1171875,0.2578125 0.2695312,0.2578125 0.1992188,0 0.3984375,-0.1523438 0.3984375,-0.4453125 0,-0.2226563 -0.1640625,-0.4804688 -0.5273437,-0.4804688 -0.3984375,0 -0.7617188,0.28125 -1.125,0.609375 -0.2929688,0.28125 -0.515625,0.4921875 -0.8085938,0.609375 z m 0,0"
         style="fill:#000000;fill-opacity:1;fill-rule:nonzero;stroke:none"
         aria-label="k"
         transform="matrix(1.3333333,0,0,1.3333333,146.22933,95.836)"
         clip-path="url(#clipPath32)"
         id="path89" />
      <path
         d="m 12.609109,13.944547 1.207032,-3.1875 h -0.246094 c -0.386719,1.03125 -1.453125,1.710937 -2.589844,2.015625 -0.210937,0.04687 -1.1835936,0.304687 -3.1054686,0.304687 h -6 l 5.0625,-5.9414059 c 0.070312,-0.082031 0.09375,-0.1171875 0.09375,-0.1640625 0,-0.023437 0,-0.046875 -0.070312,-0.1523437 L 2.3200469,0.47970313 h 5.4609375 c 1.3359375,0 2.2382816,0.140625 2.3320316,0.15234375 0.539062,0.0820313 1.40625,0.2578125 2.191406,0.75000002 0.246094,0.1640625 0.925781,0.609375 1.265625,1.4179687 h 0.246094 L 12.609109,-7.65625e-4 H 0.83176563 c -0.22265625,0 -0.234375,0.011718755 -0.26953125,0.070312505 0,0.03515625 0,0.22265625 0,0.328125 L 5.8239531,7.6047031 0.66770313,13.651578 c -0.10546875,0.128906 -0.10546875,0.175781 -0.10546875,0.1875 0,0.105469 0.09375,0.105469 0.26953125,0.105469 z m 0,0"
         style="fill:#000000;fill-opacity:1;fill-rule:nonzero;stroke:none"
         aria-label="X"
         transform="matrix(1.3333333,0,0,1.3333333,139.57067,99.821333)"
         clip-path="url(#clipPath33)"
         id="path90" />
      <path
         d="m 3.0233594,-0.56165625 c -0.035156,0.140625 -0.09375,0.375 -0.09375,0.41015625 0,0.15234375 0.1289062,0.22265625 0.234375,0.22265625 0.1289062,0 0.234375,-0.09375 0.2695312,-0.15234375 0.035156,-0.05859375 0.09375,-0.29296875 0.1289063,-0.43359375 0.035156,-0.12890625 0.1171875,-0.45703125 0.1523437,-0.63281245 0.046875,-0.1523438 0.082031,-0.3046875 0.1171875,-0.4570313 0.082031,-0.3046875 0.082031,-0.3164062 0.2226563,-0.5390625 0.2226562,-0.3398437 0.5625,-0.7382812 1.1132812,-0.7382812 0.3867188,0 0.4101563,0.328125 0.4101563,0.4921875 0,0.421875 -0.3046875,1.1953125 -0.4101563,1.4882812 -0.082031,0.1875 -0.1054687,0.2578125 -0.1054687,0.375 0,0.36328125 0.3046875,0.59765625 0.65625,0.59765625 0.703125,0 1.0078125,-0.9609375 1.0078125,-1.06640625 0,-0.09375 -0.09375,-0.09375 -0.1054688,-0.09375 -0.1054687,0 -0.1054687,0.046875 -0.140625,0.1171875 -0.1523437,0.5625 -0.4570312,0.84375 -0.7382812,0.84375 -0.140625,0 -0.1757813,-0.09375 -0.1757813,-0.24609375 0,-0.15234375 0.035156,-0.24609375 0.1640625,-0.5625 0.082031,-0.21093745 0.375,-0.94921875 0.375,-1.34765625 0,-0.1054687 0,-0.3984375 -0.2578125,-0.5976562 -0.1289062,-0.09375 -0.328125,-0.1875 -0.65625,-0.1875 -0.6210937,0 -1.0078125,0.4101562 -1.2304687,0.703125 -0.058594,-0.5976563 -0.5507813,-0.703125 -0.9023438,-0.703125 -0.5859375,0 -0.9726562,0.3515625 -1.1835937,0.6328125 -0.046875,-0.4804688 -0.4570313,-0.6328125 -0.75,-0.6328125 -0.29296877,0 -0.45703127,0.2109375 -0.55078127,0.375 -0.15234375,0.2578125 -0.24609375,0.65625 -0.24609375,0.6914062 0,0.082031 0.09375,0.082031 0.1171875,0.082031 0.09375,0 0.10546875,-0.011719 0.15234375,-0.1992188 0.10546875,-0.421875 0.234375,-0.7617187 0.51562497,-0.7617187 0.1757813,0 0.2226563,0.1523437 0.2226563,0.3398437 0,0.140625 -0.058594,0.3984375 -0.1054688,0.5859375 -0.046875,0.1875 -0.1171875,0.46875 -0.1523437,0.6210938 L 0.85539063,-0.43275 c -0.0351563,0.0820313 -0.0703125,0.2578125 -0.0703125,0.28125 0,0.15234375 0.1171875,0.22265625 0.23437497,0.22265625 0.1289063,0 0.234375,-0.09375 0.2695313,-0.15234375 0.035156,-0.05859375 0.09375,-0.29296875 0.1289062,-0.43359375 0.035156,-0.12890625 0.1054688,-0.45703125 0.1523438,-0.63281245 0.035156,-0.1523438 0.082031,-0.3046875 0.1171875,-0.4570313 0.082031,-0.2929687 0.09375,-0.3515625 0.2929687,-0.6328125 0.1992188,-0.28125 0.5273438,-0.6445312 1.0429688,-0.6445312 0.4101562,0 0.4101562,0.3632812 0.4101562,0.4921875 0,0.1757812 -0.011719,0.2695312 -0.1171875,0.65625 z m 0,0"
         style="fill:#000000;fill-opacity:1;fill-rule:nonzero;stroke:none"
         aria-label="m"
         transform="matrix(1.3333333,0,0,1.3333333,137.72667,127.952)"
         clip-path="url(#clipPath34)"
         id="path91" />
      <path
         d="m 5.3547266,-2.3429062 c 0.1054687,0 0.2695312,0 0.2695312,-0.1757813 0,-0.1640625 -0.1757812,-0.1640625 -0.2578125,-0.1640625 H 0.74925781 c -0.09375,0 -0.2578125,0 -0.2578125,0.1640625 0,0.1757813 0.15234375,0.1757813 0.2578125,0.1757813 z m 0.011719,1.5351562 c 0.082031,0 0.2578125,0 0.2578125,-0.1640625 0,-0.1757812 -0.1640625,-0.1757812 -0.2695312,-0.1757812 H 0.74925781 c -0.10546875,0 -0.2578125,0 -0.2578125,0.1757812 0,0.1640625 0.1640625,0.1640625 0.2578125,0.1640625 z m 4.3476563,-1.4179687 c 0,-0.7617188 -0.09375,-1.3125 -0.4101563,-1.8046875 -0.2226562,-0.3164063 -0.6445312,-0.5976563 -1.2070312,-0.5976563 -1.6171875,0 -1.6171875,1.8984375 -1.6171875,2.4023438 0,0.5039062 0,2.36718745 1.6171875,2.36718745 1.6171875,0 1.6171875,-1.86328125 1.6171875,-2.36718745 z M 8.0969141,-0.05775 c -0.3164063,0 -0.75,-0.1875 -0.890625,-0.76171875 -0.09375,-0.41015625 -0.09375,-0.98437495 -0.09375,-1.49999995 0,-0.5039063 0,-1.03125 0.1054687,-1.4179688 0.1523438,-0.5507812 0.5976563,-0.6914062 0.8789063,-0.6914062 0.375,0 0.7382812,0.2226562 0.8671875,0.6328125 0.1054687,0.375 0.1171875,0.8789062 0.1171875,1.4765625 0,0.515625 0,1.0429687 -0.09375,1.47656245 -0.140625,0.6328125 -0.609375,0.78515625 -0.890625,0.78515625 z m 0,0"
         style="fill:#000000;fill-opacity:1;fill-rule:nonzero;stroke:none"
         aria-label="=0"
         transform="matrix(1.3333333,0,0,1.3333333,147.15333,127.952)"
         clip-path="url(#clipPath35)"
         id="path92" />
      <path
         d="M 3.5503984,-2.9064062 C 3.9605547,-1.8634375 4.4410234,-0.34 4.6050859,-0.105625 4.7574297,0.1053125 4.8628984,0.1053125 5.1324297,0.1053125 h 0.2109375 c 0.1054687,0 0.1171875,-0.0703125 0.1171875,-0.09375 0,-0.03515625 -0.023437,-0.046875 -0.046875,-0.09375 C 5.3082109,-0.18765625 5.2496172,-0.34 5.1793047,-0.53921875 L 3.1519609,-6.2110937 c -0.2109375,-0.5742188 -0.75,-0.703125 -1.21875,-0.703125 -0.046875,0 -0.1757812,0 -0.1757812,0.1054687 0,0.082031 0.070312,0.1054688 0.082031,0.1054688 0.328125,0.058594 0.3984375,0.1171875 0.65625,0.796875 l 0.9609375,2.7070312 -2.75390621,2.73046875 c -0.1171875,0.1171875 -0.17578125,0.17578125 -0.17578125,0.3046875 0,0.17578125 0.140625,0.29296875 0.3046875,0.29296875 0.15234375,0 0.24609376,-0.10546875 0.32812496,-0.2109375 z m 0,0"
         style="fill:#000000;fill-opacity:1;fill-rule:nonzero;stroke:none"
         aria-label="λ"
         transform="matrix(1.3333333,0,0,1.3333333,164.41067,103.45333)"
         clip-path="url(#clipPath36)"
         id="path93" />
      <path
         d="m 3.0245547,-0.56289062 c -0.035156,0.140625 -0.09375,0.375 -0.09375,0.41015625 0,0.152343745 0.1289062,0.22265625 0.234375,0.22265625 0.1289062,0 0.234375,-0.09375 0.2695312,-0.15234375 0.035156,-0.05859375 0.09375,-0.29296875 0.1289063,-0.43359375 0.035156,-0.12890625 0.1171875,-0.45703125 0.1523437,-0.63281248 0.046875,-0.1523438 0.082031,-0.3046875 0.1171875,-0.4570313 0.082031,-0.3046875 0.082031,-0.3164062 0.2226563,-0.5390625 0.2226562,-0.3398437 0.5625,-0.7382812 1.1132812,-0.7382812 0.3867188,0 0.4101563,0.328125 0.4101563,0.4921875 0,0.421875 -0.3046875,1.1953125 -0.4101563,1.48828123 -0.082031,0.1875 -0.1054687,0.2578125 -0.1054687,0.375 0,0.36328125 0.3046875,0.59765625 0.65625,0.59765625 0.703125,0 1.0078125,-0.9609375 1.0078125,-1.06640625 0,-0.09375 -0.09375,-0.09375 -0.1054688,-0.09375 -0.1054687,0 -0.1054687,0.046875 -0.140625,0.11718756 -0.1523437,0.5625 -0.4570312,0.84375 -0.7382812,0.84375 -0.140625,0 -0.1757813,-0.09375 -0.1757813,-0.24609375 0,-0.15234375 0.035156,-0.24609375 0.1640625,-0.5625 0.082031,-0.21093751 0.375,-0.94921881 0.375,-1.34765631 0,-0.1054687 0,-0.3984375 -0.2578125,-0.5976562 -0.1289062,-0.09375 -0.328125,-0.1875 -0.65625,-0.1875 -0.6210937,0 -1.0078125,0.4101562 -1.2304687,0.703125 -0.058594,-0.5976563 -0.5507813,-0.703125 -0.9023438,-0.703125 -0.5859375,0 -0.9726562,0.3515625 -1.1835937,0.6328125 -0.046875,-0.4804688 -0.4570313,-0.6328125 -0.75,-0.6328125 -0.29296876,0 -0.45703126,0.2109375 -0.55078126,0.375 -0.15234375,0.2578125 -0.24609375,0.65625 -0.24609375,0.6914062 0,0.082031 0.09375,0.082031 0.1171875,0.082031 0.09375,0 0.10546875,-0.011719 0.15234375,-0.1992188 0.10546875,-0.421875 0.234375,-0.7617187 0.51562496,-0.7617187 0.1757813,0 0.2226563,0.1523437 0.2226563,0.3398437 0,0.140625 -0.058594,0.3984375 -0.1054688,0.5859375 -0.046875,0.1875 -0.1171875,0.46875 -0.1523437,0.6210938 l -0.22265626,0.90234376 c -0.0351563,0.0820313 -0.0703125,0.2578125 -0.0703125,0.28125 0,0.152343745 0.1171875,0.22265625 0.23437496,0.22265625 0.1289063,0 0.234375,-0.09375 0.2695313,-0.15234375 0.035156,-0.05859375 0.09375,-0.29296875 0.1289062,-0.43359375 0.035156,-0.12890625 0.1054688,-0.45703125 0.1523438,-0.63281251 0.035156,-0.1523438 0.082031,-0.3046875 0.1171875,-0.4570313 0.082031,-0.2929687 0.09375,-0.3515625 0.2929687,-0.6328125 0.1992188,-0.28125 0.5273438,-0.6445312 1.0429688,-0.6445312 0.4101562,0 0.4101562,0.3632812 0.4101562,0.4921875 0,0.1757812 -0.011719,0.2695312 -0.1171875,0.65625 z m 0,0"
         style="fill:#000000;fill-opacity:1;fill-rule:nonzero;stroke:none"
         aria-label="m"
         transform="matrix(1.3333333,0,0,1.3333333,172.15867,98.633333)"
         clip-path="url(#clipPath37)"
         id="path94" />
      <path
         d="m 1.8639141,-2.2970312 c 0.2929687,0 1.03125,-0.023437 1.5234375,-0.234375 0.703125,-0.2929688 0.75,-0.890625 0.75,-1.0195313 0,-0.4453125 -0.3867188,-0.8554687 -1.0664063,-0.8554687 -1.1132812,0 -2.61328124,0.9726562 -2.61328124,2.7070312 0,1.01953125 0.58593754,1.8046875 1.57031254,1.8046875 1.4179687,0 2.2617187,-1.0546875 2.2617187,-1.171875 0,-0.058594 -0.070312,-0.1289062 -0.1289062,-0.1289062 -0.046875,0 -0.070312,0.023437 -0.1289063,0.09375 -0.7851562,0.9960937 -1.875,0.9960937 -1.9921875,0.9960937 -0.7734375,0 -0.8671875,-0.84375 -0.8671875,-1.1601562 0,-0.1171875 0.011719,-0.4335938 0.1640625,-1.03125 z m -0.46875,-0.2226563 C 1.7818828,-4.0314062 2.8131328,-4.18375 3.0709453,-4.18375 c 0.46875,0 0.7382813,0.2929688 0.7382813,0.6328125 0,1.03125 -1.59375,1.03125 -2.0039063,1.03125 z m 0,0"
         style="fill:#000000;fill-opacity:1;fill-rule:nonzero;stroke:none"
         aria-label="e"
         transform="matrix(1.3333333,0,0,1.3333333,184.464,103.45333)"
         clip-path="url(#clipPath38)"
         id="path95" />
      <path
         d="m 5.1917344,-1.5707031 c 0.1054687,0 0.2695312,0 0.2695312,-0.1757813 0,-0.1757812 -0.1523437,-0.1757812 -0.2695312,-0.1757812 H 1.0315781 c -0.10546872,0 -0.28124997,0 -0.28124997,0.1757812 0,0.1757813 0.1640625,0.1757813 0.28124997,0.1757813 z m 0,0"
         style="fill:#000000;fill-opacity:1;fill-rule:nonzero;stroke:none"
         aria-label="−"
         transform="matrix(1.3333333,0,0,1.3333333,190.648,98.633333)"
         clip-path="url(#clipPath39)"
         id="path96" />
      <path
         d="m 2.8114141,-1.9925781 c 0.3515625,0.796875 0.75,1.80468748 0.8320312,1.89843748 0.1289063,0.1640625 0.2578125,0.1640625 0.3632813,0.1640625 h 0.140625 c 0.1289062,0 0.1992187,0 0.1992187,-0.08203125 0,-0.03515625 -0.023437,-0.05859375 -0.035156,-0.0703125 -0.082031,-0.08203125 -0.1523438,-0.234375 -0.1757813,-0.3046875 L 2.4364141,-4.3949219 c -0.058594,-0.1289062 -0.1875,-0.4453125 -0.9257813,-0.4453125 -0.09375,0 -0.1875,0 -0.1875,0.09375 0,0.09375 0.070312,0.09375 0.1054688,0.1054688 0.140625,0.023437 0.28125,0.035156 0.4570312,0.4335937 l 0.8203125,1.9570313 -2.05078124,1.85156248 c -0.0820313,0.0703125 -0.140625,0.12890625 -0.140625,0.24609375 0,0.1640625 0.140625,0.234375 0.234375,0.234375 0.140625,0 0.22265625,-0.09375 0.234375,-0.10546875 z m 0,0"
         style="fill:#000000;fill-opacity:1;fill-rule:nonzero;stroke:none"
         aria-label="λ"
         transform="matrix(1.3333333,0,0,1.3333333,198.95067,98.633333)"
         clip-path="url(#clipPath40)"
         id="path97" />
      <path
         d="M 0,0 H 31.129"
         style="fill:none;stroke:#000000;stroke-width:0.398;stroke-linecap:butt;stroke-linejoin:miter;stroke-miterlimit:10;stroke-dasharray:none;stroke-opacity:1"
         transform="matrix(1.3333333,0,0,-1.3333333,164.41067,109.12)"
         clip-path="url(#clipPath41)"
         id="path98" />
      <path
         d="m 0.88011719,-0.58685156 c -0.0351563,0.15234375 -0.09375,0.375 -0.09375,0.421875 0,0.1875 0.140625,0.26953125 0.29296871,0.26953125 0.1171875,0 0.2929688,-0.0703125 0.3632813,-0.26953125 0.011719,-0.0234375 0.1289062,-0.4921875 0.1875,-0.73828125 L 1.8527734,-1.8056016 c 0.058594,-0.2226562 0.1171875,-0.4335937 0.1757813,-0.6679687 0.035156,-0.1640625 0.1171875,-0.4570313 0.1289062,-0.4921875 0.140625,-0.3164063 0.6679688,-1.21875 1.6171875,-1.21875 0.4453125,0 0.5390625,0.3632812 0.5390625,0.6914062 0,0.2578125 -0.070312,0.5390625 -0.1523437,0.8320313 l -0.2695313,1.1601562 -0.1992187,0.75000004 c -0.046875,0.19921875 -0.140625,0.5390625 -0.140625,0.5859375 0,0.1875 0.140625,0.26953125 0.2929687,0.26953125 0.3046875,0 0.375,-0.24609375 0.4453125,-0.5625 0.140625,-0.56249999 0.515625,-2.01562499 0.5976563,-2.40234379 0.035156,-0.1289062 0.5625,-1.3242187 1.6523437,-1.3242187 0.421875,0 0.5390625,0.3398437 0.5390625,0.6914062 0,0.5742188 -0.421875,1.7109375 -0.6210937,2.2382813 -0.09375,0.234375 -0.1289063,0.35156249 -0.1289063,0.55078124 0,0.46875 0.3515625,0.80859375 0.8085938,0.80859375 0.9375,0 1.3125,-1.45312499 1.3125,-1.53515629 0,-0.09375 -0.09375,-0.09375 -0.1171875,-0.09375 -0.1054688,0 -0.1054688,0.023437 -0.1523438,0.1757813 -0.1523437,0.52734374 -0.46875,1.24218749 -1.0195312,1.24218749 -0.1640625,0 -0.234375,-0.10546875 -0.234375,-0.328125 0,-0.2578125 0.082031,-0.4921875 0.1757812,-0.71484379 0.1875,-0.515625 0.609375,-1.6171875 0.609375,-2.1914062 0,-0.6445313 -0.3984375,-1.0664063 -1.1484375,-1.0664063 -0.75,0 -1.2539062,0.4453125 -1.6171875,0.9726563 -0.011719,-0.1289063 -0.046875,-0.46875 -0.328125,-0.7148438 -0.2460937,-0.1992187 -0.5625,-0.2578125 -0.8085937,-0.2578125 -0.9023438,0 -1.3828125,0.6445313 -1.5585938,0.8671875 -0.046875,-0.5625 -0.46875,-0.8671875 -0.9140625,-0.8671875 -0.45703121,0 -0.64453121,0.3867188 -0.73828121,0.5742188 -0.17578125,0.3398437 -0.3046875,0.9375 -0.3046875,0.9609375 0,0.1054687 0.09375,0.1054687 0.1171875,0.1054687 0.09375,0 0.10546875,-0.011719 0.1640625,-0.234375 0.17578125,-0.703125 0.375,-1.1835937 0.72656251,-1.1835937 0.1640625,0 0.3164062,0.082031 0.3164062,0.4570312 0,0.2109375 -0.035156,0.3164063 -0.1640625,0.8320313 z m 0,0"
         style="fill:#000000;fill-opacity:1;fill-rule:nonzero;stroke:none"
         aria-label="m"
         transform="matrix(1.3333333,0,0,1.3333333,177.48667,121.552)"
         clip-path="url(#clipPath42)"
         id="path99" />
      <path
         d="m 1.5227656,-2.0868516 0.3867188,-4.5351562 c 0,-0.328125 -0.2695313,-0.515625 -0.5273438,-0.515625 -0.2578125,0 -0.52734373,0.1875 -0.52734373,0.515625 l 0.38671873,4.5234375 c 0.011719,0.1523437 0.023437,0.234375 0.140625,0.234375 0.1054688,0 0.1289063,-0.046875 0.140625,-0.2226563 z m 0.3867188,1.55859379 c 0,-0.29296875 -0.234375,-0.52734379 -0.5273438,-0.52734379 -0.28125,0 -0.52734373,0.23437504 -0.52734373,0.52734379 0,0.29296875 0.24609373,0.5273437475 0.52734373,0.5273437475 0.2929688,0 0.5273438,-0.2343749975 0.5273438,-0.5273437475 z m 0,0"
         style="fill:#000000;fill-opacity:1;fill-rule:nonzero;stroke:none"
         aria-label="!"
         transform="matrix(1.3333333,0,0,1.3333333,189.14933,121.552)"
         clip-path="url(#clipPath43)"
         id="path100" />
      <path
         d="m 1.9098594,-2.4950391 c 0,-0.28125 -0.234375,-0.5273437 -0.5273438,-0.5273437 -0.28125,0 -0.52734373,0.2460937 -0.52734373,0.5273437 0,0.2929688 0.24609373,0.5390625 0.52734373,0.5390625 0.2929688,0 0.5273438,-0.2460937 0.5273438,-0.5390625 z m 0,0"
         style="fill:#000000;fill-opacity:1;fill-rule:nonzero;stroke:none"
         aria-label="·"
         transform="matrix(1.3333333,0,0,1.3333333,210.46133,112.44)"
         clip-path="url(#clipPath44)"
         id="path101" />
      <path
         d="M 2.2982891,-3.4923437 C 2.3568828,-3.7032812 2.4506328,-4.09 2.4506328,-4.136875 c 0,-0.1640625 -0.1171875,-0.2695312 -0.2929687,-0.2695312 -0.023437,0 -0.3046875,0.011719 -0.3984375,0.3632812 L 0.32953906,1.7225 c -0.0234375,0.1171875 -0.0234375,0.140625 -0.0234375,0.1640625 0,0.140625 0.10546875,0.2695313 0.26953125,0.2695313 0.2109375,0 0.328125,-0.1875 0.3515625,-0.2109375 0.0351563,-0.09375 0.17578129,-0.609375 0.55078129,-2.1445313 0.3164062,0.26953125 0.7617187,0.3046875 0.9609375,0.3046875 0.703125,0 1.0898437,-0.4453125 1.3242187,-0.7265625 0.09375,0.45703125 0.4570313,0.7265625 0.9023438,0.7265625 0.3515625,0 0.5742187,-0.22265625 0.7382812,-0.5390625 0.1640625,-0.36328125 0.2929688,-0.9726562 0.2929688,-0.9960937 0,-0.09375 -0.082031,-0.09375 -0.1171875,-0.09375 -0.09375,0 -0.1054688,0.035156 -0.140625,0.1757812 -0.1640625,0.64453125 -0.3515625,1.2421875 -0.75,1.2421875 -0.2695313,0 -0.3046875,-0.2578125 -0.3046875,-0.45703125 0,-0.22265625 0.1171875,-0.69140625 0.1992187,-1.04296875 l 0.28125,-1.078125 c 0.023437,-0.140625 0.1289063,-0.5273437 0.1640625,-0.6679687 0.058594,-0.234375 0.1523438,-0.609375 0.1523438,-0.6679688 0,-0.1875 -0.140625,-0.2695312 -0.2929688,-0.2695312 -0.046875,0 -0.3046875,0 -0.3867187,0.3398437 l -0.46875,1.8632813 c -0.1171875,0.5039062 -0.2226563,0.9257812 -0.2578125,1.0195312 -0.011719,0.046875 -0.4804688,0.9609375 -1.2890625,0.9609375 -0.5039063,0 -0.7382813,-0.328125 -0.7382813,-0.8671875 0,-0.2929687 0.070312,-0.5742187 0.140625,-0.8554687 z m 0,0"
         style="fill:#000000;fill-opacity:1;fill-rule:nonzero;stroke:none"
         aria-label="µ"
         transform="matrix(1.3333333,0,0,1.3333333,218.69733,103.45333)"
         clip-path="url(#clipPath45)"
         id="path102" />
      <path
         d="m 2.1810313,-4.6292969 c 0.011719,-0.011719 0.035156,-0.1054687 0.035156,-0.1171875 0,-0.035156 -0.035156,-0.09375 -0.1171875,-0.09375 -0.140625,0 -0.7148437,0.058594 -0.890625,0.070312 -0.058594,0.011719 -0.1523437,0.011719 -0.1523437,0.1640625 0,0.09375 0.09375,0.09375 0.1757812,0.09375 0.3398438,0 0.3398438,0.046875 0.3398438,0.1054688 0,0.046875 -0.011719,0.09375 -0.035156,0.1523437 l -0.97265625,3.94921878 c -0.0351563,0.12890625 -0.0351563,0.140625 -0.0351563,0.15234375 0,0.10546875 0.0820313,0.22265625 0.234375,0.22265625 0.1875,0 0.28124995,-0.140625 0.31640625,-0.29296875 0.011719,-0.0234375 0.3164063,-1.25390623 0.3398438,-1.34765623 0.5039062,0.046875 0.9023438,0.1992187 0.9023438,0.5625 0,0.0351562 0,0.0703125 -0.023437,0.14062498 -0.023437,0.10546875 -0.023437,0.140625 -0.023437,0.22265625 0,0.4921875 0.3984375,0.71484375 0.7382812,0.71484375 0.6796875,0 0.890625,-1.0546875 0.890625,-1.06640625 0,-0.09375 -0.09375,-0.09375 -0.1171875,-0.09375 -0.09375,0 -0.1054687,0.035156 -0.140625,0.16406256 -0.082031,0.3046875 -0.2695312,0.796875 -0.609375,0.796875 -0.1875,0 -0.2460937,-0.17578125 -0.2460937,-0.36328125 0,-0.1171875 0,-0.12890625 0.046875,-0.3046875 0,-0.0234375 0.035156,-0.140625 0.035156,-0.22265631 0,-0.6210937 -0.84375,-0.7148437 -1.1367187,-0.7382812 0.1992187,-0.1289063 0.4570312,-0.3515625 0.5859375,-0.4570313 0.3515625,-0.3398437 0.703125,-0.6679687 1.0898437,-0.6679687 0.082031,0 0.1757813,0.023437 0.234375,0.09375 -0.3046875,0.046875 -0.3632812,0.28125 -0.3632812,0.3867187 0,0.1523438 0.1171875,0.2578125 0.2695312,0.2578125 0.1992188,0 0.3984375,-0.1523437 0.3984375,-0.4453125 0,-0.2226562 -0.1640625,-0.4804687 -0.5273437,-0.4804687 -0.3984375,0 -0.7617188,0.28125 -1.125,0.609375 -0.2929688,0.28125 -0.515625,0.4921875 -0.8085938,0.609375 z m 0,0"
         style="fill:#000000;fill-opacity:1;fill-rule:nonzero;stroke:none"
         aria-label="k"
         transform="matrix(1.3333333,0,0,1.3333333,226.70133,98.633333)"
         clip-path="url(#clipPath46)"
         id="path103" />
      <path
         d="m 5.1901406,-1.5707031 c 0.1054688,0 0.2695313,0 0.2695313,-0.1757813 0,-0.1757812 -0.1523438,-0.1757812 -0.2695313,-0.1757812 H 1.0299844 c -0.10546877,0 -0.28125002,0 -0.28125002,0.1757812 0,0.1757813 0.1640625,0.1757813 0.28125002,0.1757813 z m 0,0"
         style="fill:#000000;fill-opacity:1;fill-rule:nonzero;stroke:none"
         aria-label="−"
         transform="matrix(1.3333333,0,0,1.3333333,232.572,98.633333)"
         clip-path="url(#clipPath47)"
         id="path104" />
      <path
         d="m 3.0236875,-0.56289062 c -0.035156,0.140625 -0.09375,0.375 -0.09375,0.41015625 0,0.152343745 0.1289062,0.22265625 0.234375,0.22265625 0.1289062,0 0.234375,-0.09375 0.2695312,-0.15234375 0.035156,-0.05859375 0.09375,-0.29296875 0.1289063,-0.43359375 0.035156,-0.12890625 0.1171875,-0.45703125 0.1523437,-0.63281248 0.046875,-0.1523438 0.082031,-0.3046875 0.1171875,-0.4570313 0.082031,-0.3046875 0.082031,-0.3164062 0.2226563,-0.5390625 0.2226562,-0.3398437 0.5625,-0.7382812 1.1132812,-0.7382812 0.3867188,0 0.4101563,0.328125 0.4101563,0.4921875 0,0.421875 -0.3046875,1.1953125 -0.4101563,1.48828123 -0.082031,0.1875 -0.1054687,0.2578125 -0.1054687,0.375 0,0.36328125 0.3046875,0.59765625 0.65625,0.59765625 0.703125,0 1.0078125,-0.9609375 1.0078125,-1.06640625 0,-0.09375 -0.09375,-0.09375 -0.1054688,-0.09375 -0.1054687,0 -0.1054687,0.046875 -0.140625,0.11718756 -0.1523437,0.5625 -0.4570312,0.84375 -0.7382812,0.84375 -0.140625,0 -0.1757813,-0.09375 -0.1757813,-0.24609375 0,-0.15234375 0.035156,-0.24609375 0.1640625,-0.5625 0.082031,-0.21093751 0.375,-0.94921881 0.375,-1.34765631 0,-0.1054687 0,-0.3984375 -0.2578125,-0.5976562 -0.1289062,-0.09375 -0.328125,-0.1875 -0.65625,-0.1875 -0.6210937,0 -1.0078125,0.4101562 -1.2304687,0.703125 -0.058594,-0.5976563 -0.5507813,-0.703125 -0.9023438,-0.703125 -0.5859375,0 -0.9726562,0.3515625 -1.1835937,0.6328125 -0.046875,-0.4804688 -0.4570313,-0.6328125 -0.75,-0.6328125 -0.29296875,0 -0.45703125,0.2109375 -0.55078125,0.375 -0.15234375,0.2578125 -0.24609375,0.65625 -0.24609375,0.6914062 0,0.082031 0.09375,0.082031 0.1171875,0.082031 0.09375,0 0.10546875,-0.011719 0.15234375,-0.1992188 0.10546875,-0.421875 0.234375,-0.7617187 0.51562495,-0.7617187 0.1757813,0 0.2226563,0.1523437 0.2226563,0.3398437 0,0.140625 -0.058594,0.3984375 -0.1054688,0.5859375 -0.046875,0.1875 -0.1171875,0.46875 -0.1523437,0.6210938 l -0.22265625,0.90234376 c -0.0351563,0.0820313 -0.0703125,0.2578125 -0.0703125,0.28125 0,0.152343745 0.1171875,0.22265625 0.23437495,0.22265625 0.1289063,0 0.234375,-0.09375 0.2695313,-0.15234375 0.035156,-0.05859375 0.09375,-0.29296875 0.1289062,-0.43359375 0.035156,-0.12890625 0.1054688,-0.45703125 0.1523438,-0.63281251 0.035156,-0.1523438 0.082031,-0.3046875 0.1171875,-0.4570313 0.082031,-0.2929687 0.09375,-0.3515625 0.2929687,-0.6328125 0.1992188,-0.28125 0.5273438,-0.6445312 1.0429688,-0.6445312 0.4101562,0 0.4101562,0.3632812 0.4101562,0.4921875 0,0.1757812 -0.011719,0.2695312 -0.1171875,0.65625 z m 0,0"
         style="fill:#000000;fill-opacity:1;fill-rule:nonzero;stroke:none"
         aria-label="m"
         transform="matrix(1.3333333,0,0,1.3333333,240.87467,98.633333)"
         clip-path="url(#clipPath48)"
         id="path105" />
      <path
         d="m 1.8640469,-2.2970312 c 0.2929687,0 1.03125,-0.023437 1.5234375,-0.234375 0.703125,-0.2929688 0.75,-0.890625 0.75,-1.0195313 0,-0.4453125 -0.3867188,-0.8554687 -1.0664063,-0.8554687 -1.1132812,0 -2.61328122,0.9726562 -2.61328122,2.7070312 0,1.01953125 0.58593752,1.8046875 1.57031252,1.8046875 1.4179687,0 2.2617187,-1.0546875 2.2617187,-1.171875 0,-0.058594 -0.070312,-0.1289062 -0.1289062,-0.1289062 -0.046875,0 -0.070312,0.023437 -0.1289063,0.09375 -0.7851562,0.9960937 -1.875,0.9960937 -1.9921875,0.9960937 -0.7734375,0 -0.8671875,-0.84375 -0.8671875,-1.1601562 0,-0.1171875 0.011719,-0.4335938 0.1640625,-1.03125 z m -0.46875,-0.2226563 C 1.7820156,-4.0314062 2.8132656,-4.18375 3.0710781,-4.18375 c 0.46875,0 0.7382813,0.2929688 0.7382813,0.6328125 0,1.03125 -1.59375,1.03125 -2.0039063,1.03125 z m 0,0"
         style="fill:#000000;fill-opacity:1;fill-rule:nonzero;stroke:none"
         aria-label="e"
         transform="matrix(1.3333333,0,0,1.3333333,253.17867,103.45333)"
         clip-path="url(#clipPath49)"
         id="path106" />
      <path
         d="m 5.1908672,-1.5707031 c 0.1054687,0 0.2695312,0 0.2695312,-0.1757813 0,-0.1757812 -0.1523437,-0.1757812 -0.2695312,-0.1757812 H 1.0307109 c -0.10546871,0 -0.28124996,0 -0.28124996,0.1757812 0,0.1757813 0.1640625,0.1757813 0.28124996,0.1757813 z m 0,0"
         style="fill:#000000;fill-opacity:1;fill-rule:nonzero;stroke:none"
         aria-label="−"
         transform="matrix(1.3333333,0,0,1.3333333,259.364,98.633333)"
         clip-path="url(#clipPath50)"
         id="path107" />
      <path
         d="m 0.37597656,1.1246094 c -0.0234375,0.1054687 -0.0234375,0.140625 -0.0234375,0.140625 0,0.1523437 0.1171875,0.2226562 0.234375,0.2226562 0.24609375,0 0.3046875,-0.2226562 0.33984375,-0.3398437 0.0117188,-0.035156 0.15234379,-0.59765627 0.31640629,-1.27734377 0.2109375,0.140625 0.4921875,0.19921875 0.75,0.19921875 0.5976562,0 0.984375,-0.4921875 0.9960937,-0.50390625 0.140625,0.48046875 0.6210938,0.50390625 0.7265625,0.50390625 0.2460938,0 0.421875,-0.15234375 0.5507813,-0.375 0.1523437,-0.26953125 0.234375,-0.66796875 0.234375,-0.69140625 0,-0.09375 -0.082031,-0.09375 -0.1054688,-0.09375 -0.09375,0 -0.1054687,0.035156 -0.1523437,0.22265631 -0.082031,0.328125 -0.2226563,0.73828125 -0.515625,0.73828125 -0.1757813,0 -0.2226563,-0.15234375 -0.2226563,-0.33984375 0,-0.1171875 0.046875,-0.36328125 0.1054688,-0.55078131 0.046875,-0.1875 0.1171875,-0.46875 0.1523437,-0.6210937 l 0.1523438,-0.6210938 c 0.046875,-0.1757812 0.1289062,-0.4804687 0.1289062,-0.515625 0,-0.140625 -0.1171875,-0.2226562 -0.234375,-0.2226562 -0.082031,0 -0.2109375,0.035156 -0.2929687,0.1640625 -0.011719,0.035156 -0.070312,0.2578125 -0.1054688,0.3984375 l -0.1523437,0.5859375 -0.2109375,0.86718751 c -0.046875,0.17578125 -0.046875,0.1875 -0.1171875,0.28125 -0.2109375,0.3046875 -0.515625,0.57421875 -0.9140625,0.57421875 -0.5742188,0 -0.5742188,-0.4921875 -0.5742188,-0.62109375 0,-0.17578125 0.023437,-0.26953131 0.1171875,-0.64453131 0.070312,-0.3046875 0.082031,-0.3515625 0.1523438,-0.6328125 l 0.1054687,-0.3867187 c 0.035156,-0.140625 0.1054688,-0.4101563 0.1054688,-0.4335938 0,-0.1289062 -0.1054688,-0.2226562 -0.2460938,-0.2226562 -0.2460937,0 -0.3046875,0.234375 -0.328125,0.328125 z m 0,0"
         style="fill:#000000;fill-opacity:1;fill-rule:nonzero;stroke:none"
         aria-label="µ"
         transform="matrix(1.3333333,0,0,1.3333333,267.66667,98.633333)"
         clip-path="url(#clipPath51)"
         id="path108" />
      <path
         d="M 0,0 H 42.069"
         style="fill:none;stroke:#000000;stroke-width:0.398;stroke-linecap:butt;stroke-linejoin:miter;stroke-miterlimit:10;stroke-dasharray:none;stroke-opacity:1"
         transform="matrix(1.3333333,0,0,-1.3333333,218.69733,109.12)"
         clip-path="url(#clipPath52)"
         id="path109" />
      <path
         d="m 3.2938594,2.3897109 c 0,-0.035156 0,-0.046875 -0.1640625,-0.2226562 -1.2421875,-1.25390626 -1.5703125,-3.12890626 -1.5703125,-4.6640625 0,-1.7226563 0.3867187,-3.4570313 1.6054687,-4.7109375 0.1289063,-0.1171875 0.1289063,-0.1289063 0.1289063,-0.1640625 0,-0.070312 -0.035156,-0.1054688 -0.09375,-0.1054688 -0.1054688,0 -0.9960938,0.6796875 -1.5820313,1.9453125 -0.515625,1.1015625 -0.63281247,2.203125 -0.63281247,3.0351563 0,0.7851562 0.11718747,1.99218749 0.65624997,3.11718749 0.5976563,1.21875001 1.453125,1.87500001 1.5585938,1.87500001 0.058594,0 0.09375,-0.035156 0.09375,-0.1054688 z m 0,0"
         style="fill:#000000;fill-opacity:1;fill-rule:nonzero;stroke:none"
         aria-label="("
         transform="matrix(1.3333333,0,0,1.3333333,222.116,121.552)"
         clip-path="url(#clipPath53)"
         id="path110" />
      <path
         d="m 2.8583125,-6.8095078 c 0,0 0,-0.1054688 -0.1289062,-0.1054688 -0.234375,0 -0.9609375,0.082031 -1.21875,0.1054688 -0.082031,0 -0.1875,0.011719 -0.1875,0.1992187 0,0.1171875 0.09375,0.1171875 0.234375,0.1171875 0.4804687,0 0.5039062,0.070312 0.5039062,0.1640625 l -0.035156,0.1992188 -1.4414063,5.74218749 c -0.0351563,0.140625 -0.0351563,0.15234375 -0.0351563,0.22265625 0,0.22265625 0.19921875,0.26953125 0.28125,0.26953125 0.12890625,0 0.28125,-0.08203125 0.3398437,-0.2109375 0.058594,-0.0820313 0.5039063,-1.92187499 0.5625,-2.17968749 0.3398439,0.035156 1.1601563,0.1875 1.1601563,0.8554687 0,0.070312 0,0.1054688 -0.035156,0.1992188 -0.023437,0.1289062 -0.035156,0.24609374 -0.035156,0.35156249 0,0.5859375 0.3984375,0.984375 0.9140625,0.984375 0.2929687,0 0.5625,-0.15234375 0.7851562,-0.52734375 0.2460938,-0.43359375 0.3632813,-0.98437504 0.3632813,-1.00781254 0,-0.09375 -0.09375,-0.09375 -0.1289063,-0.09375 -0.09375,0 -0.1054687,0.035156 -0.140625,0.1757813 -0.1992187,0.72656249 -0.421875,1.24218749 -0.8671875,1.24218749 -0.1875,0 -0.3164061,-0.1171875 -0.3164061,-0.46875 0,-0.17578125 0.046875,-0.3984375 0.082031,-0.56249999 0.035156,-0.1640625 0.035156,-0.2109375 0.035156,-0.3046875 0,-0.65625 -0.6210938,-0.9375 -1.4648438,-1.0546875 0.3046875,-0.1757813 0.6210938,-0.4921875 0.8554688,-0.7265625 0.4804687,-0.5273438 0.9375,-0.9609375 1.4179686,-0.9609375 0.058594,0 0.070312,0 0.09375,0.011719 0.1171875,0.023437 0.1289063,0.023437 0.2109375,0.082031 0.023437,0 0.023437,0.011719 0.035156,0.035156 -0.4804688,0.035156 -0.5625,0.421875 -0.5625,0.5390625 0,0.1640625 0.1054687,0.3515625 0.375,0.3515625 0.2578125,0 0.5507812,-0.2226562 0.5507812,-0.609375 0,-0.3046875 -0.234375,-0.6328125 -0.6796875,-0.6328125 -0.28125,0 -0.7382811,0.082031 -1.4531249,0.8789063 -0.3398437,0.375 -0.7265625,0.7734375 -1.1015625,0.9257812 z m 0,0"
         style="fill:#000000;fill-opacity:1;fill-rule:nonzero;stroke:none"
         aria-label="k"
         transform="matrix(1.3333333,0,0,1.3333333,227.28267,121.552)"
         clip-path="url(#clipPath54)"
         id="path111" />
      <path
         d="m 6.5613047,-2.2977891 c 0.1757812,0 0.3515625,0 0.3515625,-0.1992187 0,-0.1992188 -0.1757813,-0.1992188 -0.3515625,-0.1992188 h -5.390625 c -0.1640625,0 -0.33984376,0 -0.33984376,0.1992188 0,0.1992187 0.17578126,0.1992187 0.33984376,0.1992187 z m 0,0"
         style="fill:#000000;fill-opacity:1;fill-rule:nonzero;stroke:none"
         aria-label="−"
         transform="matrix(1.3333333,0,0,1.3333333,237.568,121.552)"
         clip-path="url(#clipPath55)"
         id="path112" />
      <path
         d="m 0.87957813,-0.58685156 c -0.0351563,0.15234375 -0.09375,0.375 -0.09375,0.421875 0,0.1875 0.140625,0.26953125 0.29296877,0.26953125 0.1171875,0 0.2929687,-0.0703125 0.3632812,-0.26953125 0.011719,-0.0234375 0.1289063,-0.4921875 0.1875,-0.73828125 L 1.8522344,-1.8056016 c 0.058594,-0.2226562 0.1171875,-0.4335937 0.1757812,-0.6679687 0.035156,-0.1640625 0.1171875,-0.4570313 0.1289063,-0.4921875 0.140625,-0.3164063 0.6679687,-1.21875 1.6171875,-1.21875 0.4453125,0 0.5390625,0.3632812 0.5390625,0.6914062 0,0.2578125 -0.070312,0.5390625 -0.1523438,0.8320313 l -0.2695312,1.1601562 -0.1992188,0.75000004 c -0.046875,0.19921875 -0.140625,0.5390625 -0.140625,0.5859375 0,0.1875 0.140625,0.26953125 0.2929688,0.26953125 0.3046875,0 0.375,-0.24609375 0.4453125,-0.5625 0.140625,-0.56249999 0.515625,-2.01562499 0.5976562,-2.40234379 0.035156,-0.1289062 0.5625,-1.3242187 1.6523438,-1.3242187 0.421875,0 0.5390625,0.3398437 0.5390625,0.6914062 0,0.5742188 -0.421875,1.7109375 -0.6210938,2.2382813 -0.09375,0.234375 -0.1289062,0.35156249 -0.1289062,0.55078124 0,0.46875 0.3515625,0.80859375 0.8085937,0.80859375 0.9375,0 1.3125,-1.45312499 1.3125,-1.53515629 0,-0.09375 -0.09375,-0.09375 -0.1171875,-0.09375 -0.1054687,0 -0.1054687,0.023437 -0.1523437,0.1757813 -0.1523438,0.52734374 -0.46875,1.24218749 -1.0195313,1.24218749 -0.1640625,0 -0.234375,-0.10546875 -0.234375,-0.328125 0,-0.2578125 0.082031,-0.4921875 0.1757813,-0.71484379 0.1875,-0.515625 0.609375,-1.6171875 0.609375,-2.1914062 0,-0.6445313 -0.3984375,-1.0664063 -1.1484375,-1.0664063 -0.75,0 -1.2539063,0.4453125 -1.6171875,0.9726563 -0.011719,-0.1289063 -0.046875,-0.46875 -0.328125,-0.7148438 -0.2460938,-0.1992187 -0.5625,-0.2578125 -0.8085938,-0.2578125 -0.9023437,0 -1.3828125,0.6445313 -1.5585937,0.8671875 -0.046875,-0.5625 -0.46875,-0.8671875 -0.9140625,-0.8671875 -0.45703127,0 -0.64453127,0.3867188 -0.73828127,0.5742188 -0.17578125,0.3398437 -0.3046875,0.9375 -0.3046875,0.9609375 0,0.1054687 0.09375,0.1054687 0.1171875,0.1054687 0.09375,0 0.10546875,-0.011719 0.1640625,-0.234375 0.17578125,-0.703125 0.375,-1.1835937 0.72656247,-1.1835937 0.1640625,0 0.3164063,0.082031 0.3164063,0.4570312 0,0.2109375 -0.035156,0.3164063 -0.1640625,0.8320313 z m 0,0"
         style="fill:#000000;fill-opacity:1;fill-rule:nonzero;stroke:none"
         aria-label="m"
         transform="matrix(1.3333333,0,0,1.3333333,250.85067,121.552)"
         clip-path="url(#clipPath56)"
         id="path113" />
      <path
         d="m 2.8835313,-2.4970078 c 0,-0.7734375 -0.1171875,-1.9804688 -0.65625,-3.1054688 -0.5976563,-1.21875 -1.4648438,-1.875 -1.5585938,-1.875 -0.0585938,0 -0.10546875,0.046875 -0.10546875,0.1054688 0,0.035156 0,0.046875 0.19921875,0.234375 0.9726563,0.984375 1.5351563,2.5664062 1.5351563,4.640625 0,1.71093749 -0.3632813,3.45703124 -1.59375005,4.7226562 -0.140625,0.1171875 -0.140625,0.1289063 -0.140625,0.1640625 0,0.058594 0.046875,0.1054688 0.10546875,0.1054688 0.09375,0 0.9960938,-0.6796875 1.5820313,-1.94531251 0.5039062,-1.1015625 0.6328125,-2.20312499 0.6328125,-3.04687499 z m 2.5136718,0.4101562 0.3867188,-4.5351562 c 0,-0.328125 -0.2695313,-0.515625 -0.5273438,-0.515625 -0.2578125,0 -0.5273437,0.1875 -0.5273437,0.515625 l 0.3867187,4.5234375 c 0.011719,0.1523437 0.023437,0.234375 0.140625,0.234375 0.1054688,0 0.1289063,-0.046875 0.140625,-0.2226563 z m 0.3867188,1.55859379 c 0,-0.29296875 -0.234375,-0.52734379 -0.5273438,-0.52734379 -0.28125,0 -0.5273437,0.23437504 -0.5273437,0.52734379 0,0.29296875 0.2460937,0.5273437475 0.5273437,0.5273437475 0.2929688,0 0.5273438,-0.2343749975 0.5273438,-0.5273437475 z m 0,0"
         style="fill:#000000;fill-opacity:1;fill-rule:nonzero;stroke:none"
         aria-label=")!"
         transform="matrix(1.3333333,0,0,1.3333333,262.51467,121.552)"
         clip-path="url(#clipPath57)"
         id="path114" />
      <path
         d="m 6.8444141,-3.2567578 c 0.1523437,0 0.3398437,0 0.3398437,-0.1992188 0,-0.1992187 -0.1875,-0.1992187 -0.328125,-0.1992187 H 0.89128906 c -0.140625,0 -0.328125,0 -0.328125,0.1992187 0,0.1992188 0.1875,0.1992188 0.33984375,0.1992188 z m 0.011719,1.9335937 c 0.140625,0 0.328125,0 0.328125,-0.1992187 0,-0.1992188 -0.1875,-0.1992188 -0.3398437,-0.1992188 H 0.90300781 c -0.15234375,0 -0.33984375,0 -0.33984375,0.1992188 0,0.1992187 0.1875,0.1992187 0.328125,0.1992187 z m 0,0"
         style="fill:#000000;fill-opacity:1;fill-rule:nonzero;stroke:none"
         aria-label="="
         transform="matrix(1.3333333,0,0,1.3333333,280.07333,112.44)"
         clip-path="url(#clipPath58)"
         id="path115" />
      <path
         d="m 1.9094688,-0.52628906 c 0,-0.29296875 -0.234375,-0.52734374 -0.5273438,-0.52734374 -0.28125,0 -0.52734375,0.23437499 -0.52734375,0.52734374 0,0.29296875 0.24609375,0.52734375 0.52734375,0.52734375 0.2929688,0 0.5273438,-0.234375 0.5273438,-0.52734375 z m 0,0"
         style="fill:#000000;fill-opacity:1;fill-rule:nonzero;stroke:none"
         aria-label="."
         transform="matrix(1.3333333,0,0,1.3333333,294.09467,112.44)"
         clip-path="url(#clipPath59)"
         id="path116" />
      <path
         d="m 1.9089476,-0.52628906 c 0,-0.29296875 -0.234375,-0.52734374 -0.5273438,-0.52734374 -0.28125,0 -0.52734374,0.23437499 -0.52734374,0.52734374 0,0.29296875 0.24609374,0.52734375 0.52734374,0.52734375 0.2929688,0 0.5273438,-0.234375 0.5273438,-0.52734375 z m 4.4326171,0 c 0,-0.29296875 -0.234375,-0.52734374 -0.5273437,-0.52734374 -0.28125,0 -0.5273438,0.23437499 -0.5273438,0.52734374 0,0.29296875 0.2460938,0.52734375 0.5273438,0.52734375 0.2929687,0 0.5273437,-0.234375 0.5273437,-0.52734375 z m 0,0"
         style="fill:#000000;fill-opacity:1;fill-rule:nonzero;stroke:none"
         aria-label=".."
         transform="matrix(1.3333333,0,0,1.3333333,299.98989,112.44)"
         clip-path="url(#clipPath60)"
         id="path117" />
    </g>
  </g>
</svg>
